<?xml version="1.0" standalone="no"?>
<!DOCTYPE svg PUBLIC "-//W3C//DTD SVG 1.1//EN" "http://www.w3.org/Graphics/SVG/1.1/DTD/svg11.dtd" >
<svg>
<metadata>
Created by FontForge 20090622 at Thu Jan 21 10:37:47 2016
 By deploy user
</metadata>
<defs>
<font id="Clarendon-Light-DTC" horiz-adv-x="278" >
  <font-face 
    font-family="Clarendon-Light-DTC"
    font-weight="500"
    font-stretch="normal"
    units-per-em="1000"
    panose-1="0 0 0 0 0 0 0 0 0 0"
    ascent="800"
    descent="-200"
    x-height="467"
    cap-height="667"
    bbox="-187 -207 1080 889"
    underline-thickness="50"
    underline-position="-55"
    unicode-range="U+0020-U+F002"
  />
<missing-glyph 
 />
    <glyph glyph-name=".notdef" 
 />
    <glyph glyph-name="glyph1" horiz-adv-x="0" 
 />
    <glyph glyph-name="glyph2" 
 />
    <glyph glyph-name="space" unicode=" " 
 />
    <glyph glyph-name="space" unicode="&#xa0;" 
 />
    <glyph glyph-name="exclam" unicode="!" horiz-adv-x="267" 
d="M133 116q28 -1 47.5 -20.5t19.5 -47.5q0 -27 -19.5 -46t-47.5 -19q-27 0 -46.5 19t-19.5 46q0 28 19.5 47.5t46.5 19.5v1zM156 162h-45l-39 387q-2 23 -3 29.5t-1 9.5v0v0q0 28 18.5 46.5t46.5 18.5q30 0 48.5 -18.5t18.5 -48.5q0 -5 -0.5 -16.5t-2.5 -25.5l-41 -382v0z
" />
    <glyph glyph-name="quotedbl" unicode="&#x22;" horiz-adv-x="372" 
d="M140 399h-72l-18 268h109l-19 -268v0zM303 399h-73l-17 268h108l-18 -268v0z" />
    <glyph glyph-name="numbersign" unicode="#" horiz-adv-x="567" 
d="M539 285l-14 -89h-106l-31 -196h-101l31 196h-112l-31 -196h-100l31 196h-107l14 89h107l17 110h-107l14 89h106l29 183h100l-29 -183h113l28 183h101l-29 -183h105l-13 -89h-105l-17 -110h106v0zM349 395h-112l-17 -110h112l17 110v0z" />
    <glyph glyph-name="dollar" unicode="$" horiz-adv-x="567" 
d="M252 651v37h52v-37q83 -5 136.5 -44t53.5 -95q0 -31 -18.5 -53t-47.5 -22q-25 0 -41.5 15.5t-16.5 39.5t11.5 38t33.5 18q-13 19 -42 30t-69 13v-219q2 -2 4.5 -2.5t4.5 -1.5q4 -1 8 -2.5t8 -2.5q69 -22 127 -57.5t58 -123.5q0 -97 -61.5 -140t-148.5 -52v-61h-52v61
q-13 1 -26.5 2.5t-27.5 3.5q-55 10 -101 40.5t-46 95.5q0 39 19.5 64t50.5 25q27 0 43.5 -17t16.5 -45q0 -23 -14 -40t-34 -17q-4 0 -8 1t-10 3q16 -27 44 -39.5t58 -16.5q9 -1 18 -1.5t17 -0.5v229q-4 0 -8 1t-8 3q-68 19 -125 53.5t-57 118.5q0 89 52 141t146 56v1z
M304 49q59 10 87.5 38t28.5 74q0 40 -27 63.5t-89 38.5v-214v0zM252 590q-56 -10 -82 -35.5t-26 -72.5q0 -46 30.5 -64.5t67.5 -31.5q2 -1 4.5 -2t5.5 -2v208v0z" />
    <glyph glyph-name="percent" unicode="%" horiz-adv-x="719" 
d="M549 335q56 -1 89 -46.5t33 -125.5q0 -9 -0.5 -17.5t-1.5 -17.5q-5 -52 -32 -95t-88 -43q-58 0 -90.5 44.5t-32.5 126.5t32.5 127.5t90.5 45.5v1zM549 295q-31 -1 -44 -28.5t-13 -90.5q0 -81 13 -114.5t44 -33.5q32 0 45.5 30.5t13.5 97.5q0 74 -13.5 106t-45.5 32v1z
M541 661h60l-403 -661h-55l398 661v0zM169 677q56 -1 89 -47t33 -126q0 -9 -0.5 -17.5t-1.5 -17.5q-6 -52 -33 -95.5t-87 -43.5q-58 0 -90.5 45.5t-32.5 127.5q0 81 32.5 127t90.5 46v1zM169 636q-31 -1 -44 -28t-13 -91q0 -81 13 -114t44 -33t44.5 30t13.5 98
q0 74 -13 105.5t-45 31.5v1z" />
    <glyph glyph-name="ampersand" unicode="&#x26;" horiz-adv-x="735" 
d="M454 377h262v-53h-31q-18 -1 -29 -3.5t-21 -13.5q-10 -10 -21 -30t-28 -54q-9 -18 -21.5 -39t-27.5 -42l-14 -19.5l-14 -18.5q15 -16 30.5 -26t31.5 -14q5 -2 10.5 -2.5t10.5 -0.5q37 0 55 27.5t24 60.5q2 12 3 24t1 22l59 1q-1 -101 -41 -155t-113 -54q-13 0 -25 1.5
t-24 5.5q-21 6 -43 18t-47 32q-39 -30 -81.5 -43.5t-95.5 -13.5q-105 0 -168 51t-63 136q0 80 48.5 123t114.5 72q-20 36 -29.5 66.5t-9.5 59.5q0 63 41 101t108 38q59 0 96.5 -34t37.5 -88q0 -59 -38.5 -95t-87.5 -59l74.5 -108l77.5 -105q33 48 46 79t14 58v2v2
q0 18 -9 27.5t-27 9.5l-36 1v53v0zM225 322l-11 -7.5t-10 -6.5q-36 -25 -52 -51.5t-16 -60.5q0 -65 42.5 -106t109.5 -41q19 0 36.5 4t35.5 12q9 4 18 9t18 11q-49 55 -90.5 115l-80.5 121v1zM287 406q25 16 41 30.5t25 28.5q8 12 11.5 24t3.5 25q0 29 -16.5 46.5
t-43.5 17.5q-26 0 -43.5 -19.5t-17.5 -48.5q0 -19 10.5 -47t29.5 -58v1z" />
    <glyph glyph-name="quotesingle" unicode="'" horiz-adv-x="210" 
d="M141 399h-72l-18 268h109l-19 -268v0z" />
    <glyph glyph-name="parenleft" unicode="(" horiz-adv-x="357" 
d="M364 683v-55q-97 -38 -129 -120t-37 -174q-1 -23 -1.5 -46t-0.5 -45v-32t1 -32q2 -102 31 -194t136 -137v-55q-124 24 -200.5 143.5t-76.5 291.5q0 104 19 179t60 136q37 52 86.5 89t111.5 50v1z" />
    <glyph glyph-name="parenright" unicode=")" horiz-adv-x="357" 
d="M-7 -207v55q97 36 129 118t37 173q1 23 1.5 46.5t0.5 46.5v38.5t-1 38.5q-3 98 -33.5 186.5t-132.5 131.5l-1 56q124 -25 200.5 -145.5t76.5 -291.5q0 -22 -1 -44t-4 -44q-14 -123 -76 -230t-195 -135h-1z" />
    <glyph glyph-name="asterisk" unicode="*" horiz-adv-x="451" 
d="M273 624q-2 -7 -6 -15.5l-8 -17.5l-2 -6l-2 -6q-5 -12 -8.5 -23.5t-3.5 -19.5q0 -3 2 -5t6 -2q11 0 21.5 10l23.5 23q12 12 26 22t30 10q20 0 34 -15.5t14 -38.5q0 -22 -13 -34t-37 -12q-9 0 -18 1t-18 3l-18 2t-18 1q-10 0 -15.5 -3t-5.5 -8q0 -3 2 -6t5 -6q7 -6 18 -12
l23 -13q18 -11 33 -24.5t15 -33.5q0 -18 -14.5 -31.5t-31.5 -16.5q-2 -1 -3.5 -1h-3.5q-23 0 -34 18t-17 39q-1 6 -2.5 12.5t-3.5 12.5q0 3 -0.5 5.5t-1.5 4.5l-3.5 12t-3.5 9t-4 5.5t-5 1.5q-4 0 -8.5 -7t-8.5 -21q0 -2 -0.5 -3.5t-1.5 -3.5q-1 -7 -2.5 -14.5t-3.5 -14.5
q-5 -21 -15.5 -38.5t-33.5 -17.5h-4.5t-4.5 1q-17 3 -31 17t-14 31q0 20 15 34t33 25l16.5 9.5l14.5 8.5q9 6 13 10t4 8q0 5 -5.5 8t-15.5 3q-9 0 -18 -1t-17 -3q-9 -1 -18 -2.5t-18 -1.5q-25 0 -38 12.5t-13 34.5q0 23 14 38.5t34 15.5q17 0 30.5 -10t24.5 -22
q3 -4 6.5 -7.5l6.5 -6.5q8 -8 16.5 -13.5t17.5 -5.5q3 0 5 2t2 5q0 12 -5 25t-11 26q-7 13 -12 27t-5 28q0 19 14.5 32t36.5 13q23 0 37 -12.5t14 -32.5v-4.5t-1 -4.5q0 -3 -0.5 -5.5t-1.5 -4.5v1z" />
    <glyph glyph-name="plus" unicode="+" horiz-adv-x="567" 
d="M67 382h168v163h98v-163h167v-91h-167v-163h-98v163h-168v91v0z" />
    <glyph glyph-name="comma" unicode="," horiz-adv-x="267" 
d="M71 -135v41q41 8 61.5 31.5t23.5 63.5q-4 -2 -7 -4.5t-6 -4.5q-5 -2 -11 -3t-16 -1q-23 0 -39.5 16.5t-16.5 41.5q0 29 19.5 48.5t46.5 19.5q38 0 60 -28t22 -75q0 -56 -38 -97t-99 -49v0z" />
    <glyph glyph-name="hyphen" unicode="-" horiz-adv-x="241" 
d="M10 319h221v-90h-221v90v0z" />
    <glyph glyph-name="period" unicode="." horiz-adv-x="267" 
d="M134 114q28 -1 47 -20t19 -47t-19.5 -46.5t-46.5 -18.5q-28 0 -47 19t-19 46q0 28 19 47t47 19v1z" />
    <glyph glyph-name="slash" unicode="/" horiz-adv-x="330" 
d="M232 667h84l-279 -870h-83l278 870v0z" />
    <glyph glyph-name="zero" unicode="0" horiz-adv-x="567" 
d="M280 654q114 -1 175 -85.5t61 -241.5q0 -163 -61.5 -251.5t-174.5 -88.5q-105 0 -167 89t-62 240q0 102 18.5 166.5t61.5 107.5q25 27 60.5 43t73.5 19q4 1 7.5 1h7.5v1zM278 595q-34 -2 -56.5 -17t-34.5 -44q-3 -6 -5 -12.5l-4 -12.5q-9 -28 -11.5 -63.5t-2.5 -109.5
q0 -84 2.5 -123.5t10.5 -70.5q1 -2 1.5 -4.5t1.5 -5.5q12 -40 38 -63.5t60 -23.5q33 0 59 15t39 41q2 5 4.5 9.5t3.5 9.5q13 30 16.5 71.5t3.5 136.5q0 100 -5 141.5t-21 70.5q-16 30 -42 42t-58 12v1z" />
    <glyph glyph-name="one" unicode="1" horiz-adv-x="567" 
d="M348 650v-534q0 -38 11.5 -51t45.5 -13l72 1v-53h-362v53h75q32 -1 44 13t12 49v352h-131v55q70 4 110 36t51 91l72 1v0z" />
    <glyph glyph-name="two" unicode="2" horiz-adv-x="567" 
d="M466 220h52v-36t-2 -37q-4 -58 -28 -106t-95 -48q-34 0 -65 11t-60 24l-46.5 20.5t-45.5 13.5q-5 1 -10.5 1.5t-11.5 0.5q-28 0 -34.5 -18t-6.5 -39v-4v-3h-64q0 99 23 154.5t92 102.5l24 15t28 16l95 53q38 19 58 51t20 69q0 56 -39 88.5t-107 32.5q-51 0 -86 -24
t-50 -68l16 8t12 4q3 1 6 1h7q26 0 42 -16.5t16 -42.5q0 -30 -20.5 -49t-52.5 -19q-35 0 -59 28.5t-24 70.5q0 74 63 126t152 52q106 0 171.5 -53t65.5 -139q0 -99 -64 -141.5t-140 -73.5q-36 -15 -70.5 -31t-62.5 -38q-4 -3 -7.5 -6t-6.5 -6q-12 -12 -18.5 -26t-11.5 -37
q7 6 13.5 11t12.5 8q10 5 19.5 7t22.5 2q26 0 51.5 -6t51.5 -13q25 -8 50.5 -14t51.5 -6q38 0 55.5 27.5t17.5 84.5l-1 17v0z" />
    <glyph glyph-name="three" unicode="3" horiz-adv-x="567" 
d="M208 310v59q7 -2 11.5 -2.5t8.5 -0.5h3.5h2.5q70 0 107 31.5t37 89.5q0 44 -40 73.5t-98 29.5q-38 0 -69.5 -11.5t-52.5 -33.5q27 0 48.5 -11t21.5 -46q0 -28 -20.5 -46t-52.5 -18q-30 0 -49 22.5t-19 57.5q0 64 60 106.5t150 42.5q104 0 169 -45.5t65 -119.5
q0 -50 -32 -85.5t-97 -57.5q73 -17 108 -57t35 -106q0 -86 -71.5 -140.5t-182.5 -54.5q-55 0 -91 9.5t-67 33.5q-21 17 -35.5 39.5t-19.5 45.5q-2 6 -2.5 11.5t-0.5 11.5q0 42 22 67.5t57 25.5q29 0 48 -20t19 -50t-18.5 -45t-56.5 -15q15 -28 46 -42.5t77 -14.5
q78 0 122.5 39t44.5 107q0 57 -41.5 90t-113.5 33h-5.5h-4.5q-5 -1 -10 -1.5t-13 -2.5v1z" />
    <glyph glyph-name="four" unicode="4" horiz-adv-x="567" 
d="M414 257h92v-70h-92v-71q0 -38 12.5 -51t49.5 -13l30 1v-53h-303v53h57q29 -1 42.5 14.5t13.5 47.5v72h-276v70l304 393h70v-393v0zM316 257v265l-204 -265h204v0z" />
    <glyph glyph-name="five" unicode="5" horiz-adv-x="567" 
d="M156 542l-14 -149q28 22 66 35t81 13q101 0 166 -60t65 -152q0 -107 -70.5 -174.5t-180.5 -67.5q-92 0 -150.5 41t-58.5 108q0 39 21 64.5t54 25.5q29 0 48 -18t19 -46q0 -32 -21.5 -47t-50.5 -15q15 -25 46.5 -40t71.5 -15q74 0 116.5 48t42.5 132q0 69 -40.5 109
t-110.5 40q-39 0 -66.5 -12.5t-49.5 -39.5l-60 1l27 327q8 -1 26.5 -6t43.5 -11t55.5 -11t61.5 -5q56 0 94 6t73 21l11.5 5.5l11.5 5.5l16 -9q-40 -71 -97.5 -93t-134.5 -22q-35 0 -57 1.5t-42 5.5q-3 1 -6.5 1.5t-6.5 1.5v1z" />
    <glyph glyph-name="six" unicode="6" horiz-adv-x="567" 
d="M171 351q32 31 66.5 46.5t73.5 15.5q95 0 152.5 -55.5t57.5 -146.5q0 -104 -59 -165t-160 -61q-118 0 -180 75t-62 218q0 180 69 276.5t196 96.5q82 0 132.5 -33t50.5 -86q0 -34 -21 -56t-54 -22q-26 0 -43 17.5t-17 44.5q0 24 11 37.5t31 14.5q-14 13 -34.5 19t-48.5 6
q-79 0 -113 -56t-43 -124q-3 -16 -4 -32t-1 -31v1zM291 347q-55 -1 -86.5 -42t-31.5 -112q0 -67 33 -108.5t88 -41.5q57 0 88.5 42.5t31.5 119.5q0 65 -33 103t-90 38v1z" />
    <glyph glyph-name="seven" unicode="7" horiz-adv-x="567" 
d="M468 645h51q1 -10 1 -16v-12v-2v-2q0 -22 -2.5 -40t-7.5 -36q-7 -22 -20 -45.5t-34 -53.5l-71 -101q-2 -5 -4.5 -8.5t-5.5 -6.5q-48 -76 -64.5 -154.5t-17.5 -167.5h-105q0 85 16 166.5t70 151.5q16 20 37 43.5l43 47.5l20.5 23.5t19.5 23.5q23 27 40.5 53.5t24.5 50.5
q-21 -23 -44 -34t-54 -11q-21 0 -41.5 4.5t-40.5 10.5q-20 5 -40.5 9.5t-41.5 4.5q-44 0 -67 -20t-23 -58v-72h-59v251h59v-54q19 29 43 44t54 15q32 0 60.5 -9.5t54.5 -20.5l29.5 -12t28.5 -10q11 -4 22.5 -6t23.5 -2q25 0 35 16t10 38v1z" />
    <glyph glyph-name="eight" unicode="8" horiz-adv-x="567" 
d="M382 351q68 -29 101.5 -71t33.5 -100q0 -85 -65 -139t-168 -54q-110 0 -173 45t-63 124q0 56 28 95t94 73q-54 21 -81.5 58t-27.5 88q0 85 59 134t161 49q101 0 160.5 -41.5t59.5 -112.5q0 -57 -36 -91.5t-83 -57.5v1zM226 296q-47 -23 -73 -56.5t-26 -71.5
q0 -52 43.5 -85t113.5 -33q59 0 98.5 30t39.5 73q0 45 -36 71.5t-80 42.5q-22 9 -43 15.5t-37 12.5v1zM326 377q18 9 32 18.5t24 19.5q18 16 26 33.5t8 39.5q0 50 -35.5 78t-100.5 28q-57 0 -93 -25t-36 -66q0 -34 31 -57.5t69 -39.5q21 -9 41 -16.5t34 -13.5v1z" />
    <glyph glyph-name="nine" unicode="9" horiz-adv-x="567" 
d="M396 288q-14 -14 -27.5 -23.5t-26.5 -16.5q-21 -12 -43 -17t-49 -5q-89 0 -146.5 57t-57.5 146q0 101 60.5 162.5t158.5 61.5q137 0 189.5 -87.5t52.5 -209.5q0 -183 -69 -276t-205 -93q-76 0 -125.5 33.5t-49.5 85.5q0 34 20 56t51 22q30 0 48 -17t18 -46
q0 -22 -10.5 -34.5t-32.5 -16.5q2 -2 4 -3.5t5 -3.5q14 -10 30.5 -14t39.5 -4q86 0 120.5 59.5t41.5 131.5q2 13 2.5 26t0.5 25v1zM274 595q-56 -1 -88.5 -43t-32.5 -116q0 -67 32.5 -105t89.5 -38q56 0 87.5 40.5t31.5 113.5q0 65 -33.5 106t-86.5 41v1z" />
    <glyph glyph-name="colon" unicode=":" horiz-adv-x="267" 
d="M134 114q28 -1 47 -20t19 -47t-19.5 -46.5t-46.5 -18.5q-28 0 -47 19t-19 46q0 28 19 47t47 19v1zM134 465q28 -1 47 -20t19 -47q0 -27 -19.5 -46.5t-46.5 -19.5q-28 0 -47 19.5t-19 46.5q0 28 19 47t47 19v1z" />
    <glyph glyph-name="semicolon" unicode=";" horiz-adv-x="267" 
d="M71 -135v41q41 8 61.5 31.5t23.5 63.5q-4 -2 -7 -4.5t-6 -4.5q-5 -2 -11 -3t-16 -1q-23 0 -39.5 16.5t-16.5 41.5q0 29 19.5 48.5t46.5 19.5q38 0 60 -28t22 -75q0 -56 -38 -97t-99 -49v0zM128 465q28 -1 47 -20.5t19 -46.5q0 -28 -19 -47t-47 -19t-47 19t-19 47
q0 27 19.5 46.5t46.5 19.5v1z" />
    <glyph glyph-name="less" unicode="&#x3c;" horiz-adv-x="500" 
d="M466 585v-98l-329 -155l329 -156v-97l-433 211v84l433 211v0z" />
    <glyph glyph-name="equal" unicode="=" horiz-adv-x="567" 
d="M67 303h433v-86h-433v86v0zM67 465h433v-86h-433v86v0z" />
    <glyph glyph-name="greater" unicode="&#x3e;" horiz-adv-x="500" 
d="M33 79v98l329 155l-329 155v98l433 -212v-83l-433 -211v0z" />
    <glyph glyph-name="question" unicode="?" horiz-adv-x="557" 
d="M247 116q28 -1 47 -20.5t19 -47.5q0 -27 -19 -46t-47 -19t-47 19t-19 46q0 28 19 47.5t47 19.5v1zM275 165h-54q1 65 24.5 104.5t51.5 69.5l11.5 12l11.5 12q22 23 37.5 48.5t15.5 62.5q0 50 -40.5 83t-102.5 33q-56 0 -92 -27.5t-44 -76.5q13 6 22.5 9t17.5 3
q27 0 44 -18t17 -45q0 -30 -21 -50.5t-52 -20.5q-37 0 -62.5 30.5t-25.5 73.5q0 83 59.5 134t156.5 51q107 0 170.5 -49t63.5 -131q0 -67 -33 -101.5t-72 -62.5q-36 -26 -67 -57.5t-37 -87.5v1z" />
    <glyph glyph-name="at" unicode="@" horiz-adv-x="733" 
d="M484 493h70l-39 -202q-4 -17 -5.5 -28.5t-1.5 -17.5q0 -19 8.5 -29.5t23.5 -10.5q32 0 53 30.5t32 66.5q7 22 10 42.5t3 34.5q0 107 -70.5 172t-186.5 65t-199 -83.5t-83 -199.5q0 -129 79 -207t209 -78q56 0 105 10t95 29l18 -62q-46 -20 -101.5 -29.5t-116.5 -9.5
q-157 0 -256.5 96.5t-99.5 250.5q0 143 102 244.5t246 101.5q143 0 232 -84.5t89 -220.5q0 -88 -51 -157.5t-116 -69.5q-28 0 -48 17t-25 44q-21 -31 -54 -49t-71 -18q-59 0 -100.5 44.5t-41.5 108.5q0 89 51.5 149.5t127.5 60.5q35 0 61 -16.5t41 -47.5l10 53v0zM453 349
q0 36 -21 59.5t-54 23.5q-43 0 -74.5 -38t-31.5 -90q0 -41 22.5 -67t57.5 -26q43 0 72 39.5t29 97.5v1z" />
    <glyph glyph-name="A" unicode="A" horiz-adv-x="757" 
d="M497 222h-282l-8 -20t-9 -20q-3 -9 -6.5 -17t-6.5 -17q-6 -15 -9.5 -29.5t-3.5 -27.5q0 -19 12 -27t43 -8l53 1v-57h-296v57q50 -1 71 6.5t37 36.5l10.5 22t11.5 27l207 518h105l227 -531q4 -8 7 -15.5t7 -13.5q11 -22 25 -36.5t46 -14.5l36 1v-57h-325v57h57
q27 -1 37.5 4t10.5 18q0 5 -2 11.5t-8 19.5l-47 112v0zM472 283l-123 286l-111 -286h234v0z" />
    <glyph glyph-name="B" unicode="B" horiz-adv-x="737" 
d="M534 353q78 -10 120.5 -52t42.5 -111q0 -107 -75.5 -147.5t-165.5 -42.5h-7.5h-6.5h-409v57h38q41 -1 53.5 10t12.5 48v436q0 36 -12.5 47t-53.5 11l-38 1v57h396q115 -1 175 -43.5t60 -123.5q0 -58 -34 -97.5t-96 -50.5v1zM245 61h177q78 -1 116 31t38 97q0 56 -39 91
t-102 35l-190 1v-255v0zM245 377h172q62 -1 97.5 30t35.5 85q0 55 -34 84t-99 29l-172 1v-229v0z" />
    <glyph glyph-name="C" unicode="C" horiz-adv-x="722" 
d="M583 607l30 67h54v-268h-54q-11 91 -69.5 148.5t-140.5 57.5q-106 0 -169 -78.5t-63 -211.5q0 -119 61.5 -191t163.5 -72q86 0 146.5 55.5t76.5 147.5l67 1q-13 -129 -93.5 -204.5t-211.5 -75.5q-147 0 -239 93t-92 242q0 160 88.5 262t227.5 102q45 0 77.5 -6.5
t62.5 -20.5q18 -9 37 -21t40 -28v1z" />
    <glyph glyph-name="D" unicode="D" horiz-adv-x="788" 
d="M33 610v57h398q138 -1 222.5 -89.5t84.5 -233.5q0 -160 -84.5 -252t-230.5 -92h-390v57h38q41 -1 53.5 10t12.5 48v436q0 36 -12.5 47t-53.5 11l-38 1v0zM245 61h158q106 -1 160 71t54 212q0 128 -57.5 194.5t-167.5 66.5l-147 1v-545v0z" />
    <glyph glyph-name="E" unicode="E" horiz-adv-x="753" 
d="M251 606v-231h97q41 -1 61.5 19.5t20.5 62.5v45h58v-315h-58v35q0 50 -19 72.5t-61 22.5l-99 1v-257h189q133 -1 160.5 52t27.5 171l61 1v-285h-656v57h44q41 -1 53.5 10t12.5 48v436q0 36 -12.5 47t-53.5 11l-44 1v57h645v-249h-59q0 70 -24.5 128.5t-110.5 58.5l-233 1
v0z" />
    <glyph glyph-name="F" unicode="F" horiz-adv-x="671" 
d="M251 606v-229h96q41 -1 59 20t18 69v41h61v-323h-61v44q0 46 -18.5 67t-59.5 21l-95 1v-201q0 -38 13 -49t53 -11l44 1v-57h-328v57h44q41 -1 53.5 10t12.5 48v436q0 36 -12.5 47t-53.5 11l-44 1v57h635v-256h-59q1 7 1 11.5v8.5v0.5v1.5q0 86 -39.5 129t-118.5 43
l-201 1v0z" />
    <glyph glyph-name="G" unicode="G" horiz-adv-x="801" 
d="M585 607l29 70h56v-259h-56q-18 88 -72 138.5t-148 50.5q-103 0 -163 -78.5t-60 -211.5q0 -115 63.5 -185.5t167.5 -70.5q70 0 119.5 37t49.5 89v62q0 24 -12 33t-47 9l-54 1v56h323v-56h-55q-27 -1 -37 -10t-10 -34v-242h-54l-27 77q-35 -50 -87.5 -75t-120.5 -25
q-148 0 -244 93t-96 237q0 167 91 268t242 101q63 0 112 -18t90 -58v1z" />
    <glyph glyph-name="H" unicode="H" horiz-adv-x="857" 
d="M606 319h-354v-203q0 -38 13 -49t53 -11l44 1v-57h-328v57h44q41 -1 53.5 10t12.5 48v436q0 36 -12.5 47t-53.5 11l-44 1v57h328v-57h-44q-40 -1 -53 -12t-13 -48v-170h354v171q0 36 -12.5 47t-53.5 11l-44 1v57h328v-57h-44q-40 -1 -53 -12t-13 -48v-434q0 -38 13 -49
t53 -11l44 1v-57h-328v57h44q41 -1 53.5 10t12.5 48v204v0z" />
    <glyph glyph-name="I" unicode="I" horiz-adv-x="395" 
d="M34 610v57h328v-57h-44q-40 -1 -53 -12t-13 -48v-434q0 -38 13 -49t53 -11l44 1v-57h-328v57h44q41 -1 53.5 10t12.5 48v436q0 36 -12.5 47t-53.5 11l-44 1v0z" />
    <glyph glyph-name="J" unicode="J" horiz-adv-x="498" 
d="M138 611v56h326v-56h-38q-40 -1 -53 -12.5t-13 -48.5v-360q0 -59 -9.5 -92t-33.5 -59q-28 -29 -65.5 -42.5t-89.5 -13.5q-76 0 -127 40.5t-51 101.5q0 37 23.5 64t56.5 27q32 0 54 -20.5t22 -50.5q0 -23 -10 -36t-21 -20q-8 -5 -15 -8.5t-12 -6.5q-2 -1 -3.5 -3t-1.5 -4
q0 -12 20 -20.5t48 -8.5q72 0 89 46t18 102v6.5v6.5v352q0 36 -12.5 47.5t-53.5 11.5l-48 1v0z" />
    <glyph glyph-name="K" unicode="K" horiz-adv-x="781" 
d="M376 349l-131 -116v-117q0 -38 13 -49t53 -11l38 1v-57h-316v57h38q41 -1 53.5 10t12.5 48v436q0 36 -12.5 47t-53.5 11l-38 1v57h316v-57h-38q-40 -1 -53 -12t-13 -48v-236l223 199l37 34q19 16 26.5 26.5t7.5 19.5q0 10 -5.5 13t-20.5 3l-77 1v57h339v-57h-33
q-30 -1 -50.5 -7t-38.5 -18q-12 -8 -25 -18.5l-28 -23.5l-138 -120l223 -307q15 -22 24.5 -33.5t17.5 -17.5t17.5 -7.5t24.5 -1.5l25 1v-57h-326v57h61q19 -1 27.5 3t8.5 14q0 6 -4 14t-9 16l-4 6t-5 6q-4 6 -8 11l-7 9l-152 213v0z" />
    <glyph glyph-name="L" unicode="L" horiz-adv-x="643" 
d="M589 283h57v-283h-613v57h44q41 -1 53.5 10t12.5 48v436q0 36 -12.5 47t-53.5 11l-44 1v57h331v-57h-47q-40 -1 -53 -12t-13 -48v-489h186q95 -1 120.5 62t30.5 138q0 5 0.5 10.5t0.5 10.5v1z" />
    <glyph glyph-name="M" unicode="M" horiz-adv-x="982" 
d="M493 170l196 497h259v-57h-38q-40 -1 -53 -12t-13 -48v-434q0 -38 13 -49t53 -11l38 1v-57h-316v57h38q41 -1 53.5 10t12.5 48v477l-238 -592h-51l-241 592v-476q0 -38 12.5 -49t53.5 -11l38 1v-57h-277v57h38q41 -1 53.5 10t12.5 48v436q0 36 -12.5 47t-53.5 11l-38 1
v57h264l196 -497v0z" />
    <glyph glyph-name="N" unicode="N" horiz-adv-x="823" 
d="M261 667l371 -500v384q0 39 -14 48.5t-96 9.5v58h274v-57h-30q-40 -1 -53 -12t-13 -48v-550h-81l-413 553v-437q0 -38 12.5 -49t53.5 -11l44 1v-57h-283v57h38q41 -1 53.5 10t12.5 48v436q0 36 -12.5 47t-53.5 11l-38 1v57h228v0z" />
    <glyph glyph-name="O" unicode="O" horiz-adv-x="803" 
d="M398 683q62 -1 115 -14.5t93 -39.5q68 -43 107.5 -120.5t39.5 -164.5q0 -168 -94 -264.5t-264 -96.5q-154 0 -249.5 95t-95.5 248q0 159 94 257.5t254 98.5v1zM401 621q-107 -1 -168.5 -78t-61.5 -212q0 -76 14 -125t46 -87q31 -36 75 -55.5t93 -19.5q113 0 173.5 77.5
t60.5 221.5q0 125 -64 201t-168 76v1z" />
    <glyph glyph-name="P" unicode="P" horiz-adv-x="669" 
d="M251 304v-188q0 -38 12.5 -49t52.5 -11l51 1v-57h-334v57h44q41 -1 53.5 10t12.5 48v436q0 36 -12.5 47t-53.5 11l-44 1v57h411q95 -1 160 -38t65 -147q0 -94 -52 -136.5t-167 -42.5l-199 1v0zM251 365h163q71 -1 104.5 29t33.5 92q0 59 -34.5 89t-104.5 30l-162 1v-241
v0z" />
    <glyph glyph-name="Q" unicode="Q" horiz-adv-x="810" 
d="M755 100h52v-19.5t-1 -19.5q-2 -60 -25 -110t-101 -50q-43 0 -79 26t-64 76q-25 -8 -57 -13.5t-66 -6.5h-4.5h-5.5q-157 0 -255.5 92.5t-98.5 241.5q0 170 93.5 267.5t254.5 97.5q83 0 146 -22.5t108 -67.5q48 -48 74.5 -114t26.5 -139q0 -101 -34 -174t-105 -125
q18 -28 37 -40t42 -12q35 0 48 21t14 83v8v0zM497 61q-27 47 -58 71t-65 24q-28 0 -47.5 -18t-19.5 -45q0 -3 0.5 -6t0.5 -6q1 -5 3.5 -10t6.5 -12q2 -1 4.5 -2t4.5 -1q18 -7 36.5 -9.5t41.5 -2.5q27 0 49.5 4t42.5 12v1zM565 109q34 40 50.5 96.5t16.5 129.5
q0 132 -62.5 208.5t-170.5 76.5q-9 0 -18 -1t-17 -2q-32 -6 -62 -20.5t-51 -34.5q-43 -42 -61.5 -100t-18.5 -145q0 -79 25.5 -139.5t70.5 -91.5q-2 7 -2.5 11.5t-1.5 8.5v4v4q0 45 33.5 74.5t82.5 29.5q61 0 100.5 -27t74.5 -70q3 -3 5.5 -6.5t5.5 -6.5v1z" />
    <glyph glyph-name="R" unicode="R" horiz-adv-x="764" 
d="M706 200h54v-74q0 -72 -29 -104.5t-92 -32.5q-80 0 -96 50.5t-20 112.5t-20.5 114.5t-99.5 52.5l-158 1v-204q0 -38 13 -49t53 -11l44 1v-57h-322v57h38q41 -1 53.5 10t12.5 48v436q0 36 -12.5 47t-53.5 11l-38 1v57h452q52 -1 83 -9.5t56 -29.5q21 -18 35 -45.5
t18 -57.5q0 -5 0.5 -10.5t0.5 -10.5q0 -70 -41.5 -113t-118.5 -51q74 -20 92.5 -63t20.5 -113q2 -63 10 -82t30 -19q19 0 27 15t8 47v75v0zM245 380h195q57 -1 89 29.5t32 84.5q0 56 -31.5 83.5t-95.5 27.5l-189 1v-226v0z" />
    <glyph glyph-name="S" unicode="S" horiz-adv-x="663" 
d="M507 614l23 58h54v-248h-55q-17 92 -69 140t-150 48q-67 0 -112.5 -33.5t-45.5 -82.5q0 -39 28.5 -60t92.5 -30q9 -1 18.5 -2.5t19.5 -2.5q19 -3 39.5 -5.5t40.5 -6.5q84 -14 154.5 -51.5t70.5 -137.5q0 -95 -68.5 -156t-175.5 -61q-64 0 -114 14t-97 51l-12.5 10.5
l-13.5 11.5l-25 -70h-54v266h61q6 -63 26.5 -101.5t62.5 -67.5q32 -22 70.5 -33.5t78.5 -11.5q68 0 111.5 33t43.5 85q0 64 -58.5 83t-135.5 30q-8 1 -17 2t-17 3q-86 12 -157.5 44t-71.5 134q0 98 66.5 157t175.5 59q50 0 91 -9.5t80 -32.5l20.5 -12.5t20.5 -14.5v1z" />
    <glyph glyph-name="T" unicode="T" horiz-adv-x="633" 
d="M67 414h-57v253h613v-253h-56q-1 81 -20.5 135.5t-117.5 54.5l-56 1v-489q0 -38 12.5 -49t53.5 -11l50 1v-57h-342v57h49q41 -1 53.5 10t12.5 48v490h-52q-97 -1 -119 -52.5t-24 -139.5v1z" />
    <glyph glyph-name="U" unicode="U" horiz-adv-x="776" 
d="M16 611v56h320v-56h-38q-40 -1 -53 -12.5t-13 -48.5v-340q0 -79 48 -115.5t122 -36.5q101 0 142.5 49.5t41.5 144.5v299q0 36 -12.5 47.5t-53.5 11.5l-44 1v56h283v-56h-38q-41 -1 -53.5 -12.5t-12.5 -48.5v-340q0 -124 -78 -175.5t-190 -51.5q-118 0 -192.5 52.5
t-74.5 179.5v336q0 36 -12.5 47.5t-53.5 11.5l-38 1v0z" />
    <glyph glyph-name="V" unicode="V" horiz-adv-x="719" 
d="M397 107l154 408q8 19 12.5 35.5t4.5 24.5q0 17 -11.5 25.5t-34.5 8.5l-58 1v57h268v-57h-28q-20 -1 -32 -9t-22 -31q-2 -4 -4 -8.5t-4 -9.5l-217 -552h-99l-220 530l-11 24t-10 19q-15 26 -35 31t-63 5l-1 58h322v-57h-63q-22 -1 -31 -6.5t-9 -19.5q0 -5 1.5 -10.5
t4.5 -13.5l186 -453v0z" />
    <glyph glyph-name="W" unicode="W" horiz-adv-x="1061" 
d="M759 122l136 401q8 22 10.5 34t2.5 20q0 17 -9.5 24t-32.5 7l-59 1v58h267v-58h-33q-15 -1 -24.5 -5.5t-18.5 -19.5q-6 -9 -12.5 -24.5t-14.5 -37.5l-183 -522h-98l-158 430l-152 -430h-99l-192 542l-4 10t-4 9q-15 34 -34 40.5t-59 6.5l-1 59h302v-58h-47
q-27 -1 -38.5 -7.5t-11.5 -23.5q0 -4 2 -12t5 -17l152 -427l143 401q-1 2 -1.5 4.5t-1.5 4.5q0 1 -0.5 2t-0.5 2q-9 28 -21.5 50t-47.5 22l-56 1v58h325v-58h-55q-25 -1 -33.5 -5t-8.5 -18q0 -4 1 -10t3 -13q1 -4 2 -7.5t2 -6.5l158 -427v0z" />
    <glyph glyph-name="X" unicode="X" horiz-adv-x="714" 
d="M411 359l208 -256q5 -7 9 -11.5t7 -8.5l9 -10.5t8 -7.5q7 -6 15.5 -7.5t23.5 -1.5l33 1v-57h-332v57h67q19 -1 26.5 2.5t7.5 12.5q0 4 -4 10.5t-9 13.5q-1 2 -2 3t-2 3l-8 10t-6 8l-123 153l-103 -124q-31 -38 -40 -50.5t-9 -20.5v-0.5v-0.5q0 -11 8.5 -16t27.5 -5l59 1
v-57h-292v57q43 -1 66 8t41 28q11 11 22 24.5l26 30.5l153 178l-182 228q-12 14 -21.5 24t-18.5 16q-15 10 -32.5 12t-47.5 2l-1 59h338v-58h-65q-19 -1 -26.5 -5t-7.5 -14v-1.5v-0.5q1 -6 5 -13.5t15 -21.5l117 -143l118 137q14 16 20 25t6 15q0 12 -8.5 16.5t-29.5 4.5
l-61 1v58h300v-56q-42 -1 -63.5 -7t-39.5 -21q-9 -9 -19 -20l-23 -26l-160 -178v0z" />
    <glyph glyph-name="Y" unicode="Y" horiz-adv-x="696" 
d="M385 343l123 189q18 26 23.5 37.5t5.5 18.5q0 11 -8.5 16.5t-27.5 5.5l-62 1v56h267v-57h-30q-28 -1 -43 -18.5t-28 -38.5q-2 -2 -3 -3.5t-2 -3.5l-183 -277v-153q0 -38 12.5 -49t52.5 -11l55 1v-57h-347v57h52q41 -1 54 10t13 48v148l-214 298q-9 12 -17 20.5t-15 13.5
q-13 11 -29 12.5t-43 1.5l-1 58h328v-57h-64q-20 -1 -28.5 -5.5t-8.5 -16.5v-3.5t1 -3.5q1 -4 4 -8.5l9 -13.5l154 -216v0z" />
    <glyph glyph-name="Z" unicode="Z" horiz-adv-x="641" 
d="M607 667v-61l-439 -545h246q77 -1 104 50.5t32 113.5q2 16 3 32t1 31l57 1v-289h-581v61l437 545h-186q-100 -1 -136.5 -41.5t-41.5 -156.5l-59 1v258h563v0z" />
    <glyph glyph-name="bracketleft" unicode="[" horiz-adv-x="326" 
d="M192 610v-756h114v-57h-213v870h213v-57h-114v0z" />
    <glyph glyph-name="backslash" unicode="\" horiz-adv-x="330" 
d="M99 667l277 -870h-83l-279 870h85v0z" />
    <glyph glyph-name="bracketright" unicode="]" horiz-adv-x="326" 
d="M133 -146v757h-113v56h213v-870h-213v57h113v0z" />
    <glyph glyph-name="asciicircum" unicode="^" horiz-adv-x="500" 
d="M120 351h-104l169 318h130l169 -318h-104l-130 240l-130 -240v0z" />
    <glyph glyph-name="underscore" unicode="_" horiz-adv-x="500" 
d="M0 -58h500v-88h-500v88v0z" />
    <glyph glyph-name="grave" unicode="`" horiz-adv-x="500" 
d="M291 517l-116 110q-5 4 -8 7t-4 6q0 2 -0.5 3.5t-0.5 3.5q0 8 6.5 12t19.5 4l87 1l63 -147h-47v0z" />
    <glyph glyph-name="a" unicode="a" horiz-adv-x="570" 
d="M511 197h52v-41q0 -65 -14.5 -116.5t-101.5 -51.5q-44 0 -69.5 23.5t-31.5 70.5q-1 -2 -2.5 -4t-2.5 -4q-35 -49 -72.5 -70t-91.5 -21q-64 0 -102.5 34t-38.5 92q0 71 39.5 105t139.5 50q11 2 21 3.5t19 2.5q60 11 77 25.5t17 48.5q0 43 -28 64.5t-84 21.5
q-31 0 -55.5 -7.5t-41.5 -23.5q22 -4 31.5 -15t9.5 -31q0 -26 -17.5 -42t-45.5 -16q-25 0 -42 18.5t-17 46.5q0 56 50 89t137 33q50 0 85.5 -7t60.5 -22q29 -17 40.5 -41t11.5 -70v-238q0 -26 7.5 -38.5t23.5 -12.5q23 0 29.5 19.5t6.5 82.5v42v0zM346 252l-15.5 -8.5
t-13.5 -6.5q-2 -1 -5 -2t-5 -2q-7 -2 -15 -5t-19 -6q-32 -10 -54.5 -18t-37.5 -15q-26 -13 -33 -27.5t-7 -40.5q0 -31 20.5 -49.5t56.5 -18.5q58 0 93 37t35 97v65v0z" />
    <glyph glyph-name="b" unicode="b" horiz-adv-x="611" 
d="M190 78l-44 -78h-48v550q0 41 -9 51.5t-47 10.5l-21 1v53h175v-278q26 46 67.5 70t94.5 24q92 0 149.5 -67t57.5 -175q0 -114 -59 -185.5t-151 -71.5q-46 0 -77 12t-59 44q-7 8 -14.5 17.5t-14.5 20.5v1zM330 412q-62 -1 -100 -51t-38 -133q0 -77 36.5 -126t94.5 -49
q64 0 100.5 48.5t36.5 131.5t-35 130.5t-95 47.5v1z" />
    <glyph glyph-name="c" unicode="c" horiz-adv-x="544" 
d="M446 192h58q-13 -95 -67 -152t-154 -57q-108 0 -172 65t-64 174q0 122 64.5 191t179.5 69q89 0 146 -37.5t57 -96.5q0 -37 -19.5 -59.5t-53.5 -22.5q-28 0 -46 18t-18 45q0 18 9 31.5t22 15.5h1.5h1.5q1 1 2.5 1h2.5q4 0 7 1.5t3 5.5q0 12 -18.5 20.5t-40.5 13.5
q-13 2 -25 3.5t-20 1.5q-70 0 -110 -50.5t-40 -142.5q0 -85 41 -133.5t114 -48.5q53 0 90.5 39t48.5 104v1z" />
    <glyph glyph-name="d" unicode="d" horiz-adv-x="625" 
d="M415 0v85q-32 -56 -70.5 -79t-95.5 -23q-85 0 -144 67.5t-59 167.5q0 116 61 190t156 74q50 0 89 -21.5t63 -62.5v152q0 41 -9 51.5t-47 10.5l-42 1v53h194v-550q0 -43 10 -53.5t47 -10.5l29 1v-53h-182v0zM283 412q-60 -1 -96 -51.5t-36 -135.5q0 -82 33.5 -127
t94.5 -45q64 0 102 49.5t38 131.5q0 84 -35.5 130.5t-100.5 46.5v1z" />
    <glyph glyph-name="e" unicode="e" horiz-adv-x="558" 
d="M515 229h-361q2 -74 33.5 -126.5t114.5 -52.5q55 0 94.5 33t52.5 90l64 1q-19 -92 -78.5 -141.5t-146.5 -49.5q-109 0 -175 67t-66 176q0 119 64.5 187.5t174.5 68.5q81 0 141 -39.5t77 -104.5q3 -9 4.5 -16.5t2.5 -13.5q3 -14 3.5 -30.5t0.5 -49.5v1zM409 286
q-2 67 -35 103.5t-90 36.5q-53 0 -88.5 -38.5t-41.5 -102.5l255 1v0z" />
    <glyph glyph-name="f" unicode="f" horiz-adv-x="343" 
d="M213 467h114v-56h-114v-295q0 -42 9.5 -53t46.5 -11l56 1v-53h-303v53h36q38 -1 47.5 10t9.5 52v296h-95v56h95v58q0 70 39.5 110.5t109.5 40.5q48 0 80 -24.5t32 -61.5q0 -26 -15.5 -43.5t-39.5 -17.5q-23 0 -37.5 14.5t-14.5 36.5q0 17 9 29t25 15q-8 4 -14 6t-11 3
q-3 1 -6.5 1h-6.5q-27 0 -39.5 -16.5t-12.5 -53.5v-97v0z" />
    <glyph glyph-name="g" unicode="g" horiz-adv-x="598" 
d="M146 158q-19 -11 -27 -21t-8 -24q0 -26 24.5 -36.5t87.5 -10.5l172 1q83 -1 117 -25.5t34 -83.5q0 -79 -56.5 -114t-124.5 -45q-21 -3 -42 -4.5t-40 -1.5q-109 0 -166.5 15t-81.5 50q-5 7 -8.5 16.5t-5.5 18.5q0 4 -0.5 7.5t-0.5 7.5q0 31 17.5 50t56.5 33q-29 13 -44 34
t-15 49q0 38 19 62t61 40q-31 23 -46 52.5t-15 66.5q0 86 57 136.5t152 50.5q50 0 90.5 -14.5t71.5 -44.5q19 29 45.5 44t54.5 15q36 0 58 -20.5t22 -54.5q0 -30 -15 -48.5t-39 -18.5q-20 0 -34 15.5t-14 37.5q0 12 5 21t15 17l2.5 2.5t0.5 1.5t-2.5 1.5t-7.5 0.5
q-18 0 -35 -11t-33 -33q11 -19 16.5 -40.5t5.5 -45.5q0 -77 -57 -125.5t-149 -48.5q-32 0 -62 6t-56 18v1zM132 -19q-17 -12 -25 -26t-8 -34q0 -39 44 -57.5t136 -18.5q91 0 132.5 19t41.5 60q0 26 -19.5 39t-60.5 13l-116 2q-28 0 -45.5 0.5t-32.5 0.5q-11 0 -22 0.5
t-25 1.5v0zM258 433q-45 -1 -72 -35.5t-27 -92.5t27.5 -92t74.5 -34q50 0 78 34.5t28 92.5q0 60 -28 93t-81 33v1z" />
    <glyph glyph-name="h" unicode="h" horiz-adv-x="665" 
d="M222 667v-266q26 40 68 61t97 21q73 0 116 -38t43 -103v-226q0 -42 10 -53t47 -11l36 1v-53h-277v53h30q38 -1 47 10t9 52v209q0 42 -27 66.5t-74 24.5q-55 0 -90 -32t-35 -82v-185q0 -42 9.5 -53t46.5 -11l33 1v-53h-280v53h36q38 -1 47.5 10t9.5 52v436q0 40 -9.5 50.5
t-47.5 10.5l-36 1v54h191v0z" />
    <glyph glyph-name="i" unicode="i" horiz-adv-x="346" 
d="M227 467v-351q0 -42 9.5 -53t46.5 -11l36 1v-53h-289v53h42q38 -1 47.5 10t9.5 52v236q0 40 -9.5 50.5t-47.5 10.5l-42 1v54h197v0zM175 669q27 -1 46 -19.5t19 -45.5q0 -26 -19 -45t-46 -19q-26 0 -45 19t-19 45q0 27 19 45.5t45 18.5v1z" />
    <glyph glyph-name="j" unicode="j" horiz-adv-x="309" 
d="M229 466v-458v-10v-9q-3 -72 -35.5 -133t-120.5 -61q-48 0 -80 28.5t-32 69.5q0 32 18.5 53.5t46.5 21.5q27 0 43 -15.5t16 -41.5q0 -28 -18 -41t-44 -13q1 -1 2 -2.5t2 -2.5q8 -8 16.5 -11.5t20.5 -3.5q40 0 53.5 23.5t13.5 92.5v397q0 41 -9.5 51.5t-47.5 10.5l-46 1
v53h201v0zM164 669q27 -1 46 -20t19 -45q0 -27 -19 -46t-46 -19t-46 19t-19 46q0 26 19 45t46 19v1z" />
    <glyph glyph-name="k" unicode="k" horiz-adv-x="637" 
d="M222 667v-444l143 116q29 23 40 35.5t11 22.5q0 6 -6.5 9.5t-18.5 3.5l-69 1v56h303v-56h-39q-14 -1 -24.5 -3t-20.5 -7q-6 -2 -12 -6l-13 -9l-117 -91l147 -202q7 -11 13.5 -18t12.5 -12q8 -6 16.5 -8.5t17.5 -2.5l32 1v-53h-282v53h55q13 -1 19.5 3t6.5 12v2v2
q-1 4 -3.5 8.5t-6.5 10.5l-105 144l-100 -81v-38q0 -42 9.5 -53t46.5 -11l30 1v-53h-277v53h36q38 -1 47.5 10t9.5 52v436q0 40 -9.5 50.5t-47.5 10.5l-36 1v54h191v0z" />
    <glyph glyph-name="l" unicode="l" horiz-adv-x="340" 
d="M221 667v-551q0 -42 9.5 -53t46.5 -11l36 1v-53h-283v53h36q38 -1 47.5 10t9.5 52v436q0 40 -9.5 50.5t-47.5 10.5l-36 1v54h191v0z" />
    <glyph glyph-name="m" unicode="m" horiz-adv-x="957" 
d="M219 467l-3 -78q32 49 70 71t91 22q59 0 95.5 -23t54.5 -71q27 47 67.5 70.5t94.5 23.5q88 0 121.5 -44.5t33.5 -125.5v-196q0 -42 10 -53t47 -11l29 1v-53h-266v53h25q38 -1 47.5 10t9.5 52v187q0 59 -21.5 84t-72.5 25q-53 0 -85 -36t-32 -97v-162q0 -42 10 -53t47 -11
l29 1v-53h-270v53h30q38 -1 47 10t9 52v187q0 58 -22.5 83.5t-73.5 25.5q-58 0 -89 -37.5t-31 -105.5v-152q0 -42 9.5 -53t46.5 -11l30 1v-53h-277v53h36q38 -1 47.5 10t9.5 52v236q0 40 -9.5 50.5t-47.5 10.5l-36 1v54h189v0z" />
    <glyph glyph-name="n" unicode="n" horiz-adv-x="661" 
d="M221 467l-4 -76l21 24.5t20 20.5q28 26 58.5 36t71.5 10q74 0 117.5 -39.5t43.5 -114.5v-212q0 -42 9.5 -53t46.5 -11l30 1v-53h-273v53h29q38 -1 47.5 10t9.5 52v193q0 54 -23 80t-71 26q-59 0 -96 -32.5t-37 -85.5v-180q0 -42 9.5 -53t46.5 -11l30 1v-53h-277v53h36
q38 -1 47.5 10t9.5 52v236q0 40 -9.5 50.5t-47.5 10.5l-36 1v54h191v0z" />
    <glyph glyph-name="o" unicode="o" horiz-adv-x="598" 
d="M299 483q111 -1 181.5 -69.5t70.5 -177.5q0 -116 -68 -184.5t-183 -68.5q-109 0 -181.5 65.5t-72.5 177.5q0 118 68.5 187t184.5 69v1zM297 424q-65 -1 -103 -53t-38 -142q0 -93 37 -140.5t109 -47.5q65 0 102 48.5t37 134.5q0 97 -37 148t-107 51v1z" />
    <glyph glyph-name="p" unicode="p" horiz-adv-x="628" 
d="M217 467l-5 -80q18 22 33.5 39t30.5 28q23 17 47 23t58 6q89 0 144.5 -66t55.5 -171q0 -115 -58.5 -188.5t-147.5 -73.5q-49 0 -83 16.5t-66 57.5l-4.5 6.5l-4.5 6.5v-158q0 -41 9.5 -52t46.5 -11h46v-53h-293v53h36q38 0 47.5 11t9.5 52v438q0 40 -9.5 51t-47.5 11
l-36 1v53h191v0zM345 412q-58 -1 -95.5 -51.5t-37.5 -130.5q0 -77 36 -126.5t93 -49.5q65 0 99.5 48.5t34.5 139.5q0 82 -33.5 125.5t-96.5 43.5v1z" />
    <glyph glyph-name="q" unicode="q" horiz-adv-x="621" 
d="M417 390v77h178v-53h-26q-37 -1 -47 -12t-10 -52v-437q0 -41 10 -52t47 -11h26v-53h-277v53h42q38 0 47.5 11t9.5 52v163q-28 -50 -68 -71t-101 -21q-88 0 -144.5 66.5t-56.5 170.5q0 111 60.5 186.5t149.5 75.5q38 0 65.5 -10t53.5 -34q10 -10 20 -22.5l21 -27.5v1z
M282 412q-61 -1 -95.5 -51t-34.5 -139q0 -75 36 -119.5t96 -44.5q62 0 99 47t37 123q0 7 -0.5 15t-0.5 15q-6 58 -37.5 105.5t-99.5 47.5v1z" />
    <glyph glyph-name="r" unicode="r" horiz-adv-x="449" 
d="M219 467l-3 -101q23 32 42 54t38 35q17 12 34 17t37 5q38 0 63 -23t25 -58q0 -34 -17.5 -55.5t-46.5 -21.5q-24 0 -40 16t-16 39q0 11 4 20t11 15q1 1 2 1.5l1 0.5l3.5 3.5t1.5 4.5t-2.5 4.5t-9.5 1.5t-18 -4.5t-23 -12.5l-11 -9t-11 -10q-20 -21 -33.5 -47t-23.5 -67
v-159q0 -42 9.5 -53t46.5 -11l56 1v-53h-309v53h42q38 -1 47.5 10t9.5 52v236q0 40 -9.5 50.5t-47.5 10.5l-42 1v54h190v0z" />
    <glyph glyph-name="s" unicode="s" horiz-adv-x="506" 
d="M376 425l15 49h51v-172h-51q-18 57 -58.5 87t-102.5 30q-43 0 -70.5 -18t-27.5 -46q0 -29 33.5 -42t80.5 -22q13 -3 26.5 -5.5t26.5 -5.5q63 -15 115 -44t52 -98q0 -74 -49.5 -114.5t-140.5 -40.5q-50 0 -92 16t-76 48l-15 -55h-49v187h55q2 -10 4.5 -17.5l4.5 -13.5
q4 -13 9 -22.5t11 -17.5q3 -3 5.5 -6t5.5 -6q17 -18 44 -31t56 -18q7 -1 14 -1.5t14 -0.5q47 0 75.5 19t28.5 50q0 37 -38 52t-89 26q-9 2 -19 4t-19 4q-63 13 -114.5 41t-51.5 100q0 75 53 106.5t116 34.5h7.5h6.5q48 0 86.5 -14.5t66.5 -43.5v1z" />
    <glyph glyph-name="t" unicode="t" horiz-adv-x="363" 
d="M194 466h135v-56h-135v-304q0 -27 10 -40t30 -13q27 0 37 20t10 72v48h55v-47q0 -92 -28 -127.5t-100 -35.5q-57 0 -85.5 28t-28.5 85v314h-87v56q60 -1 90 43.5t34 97.5q1 5 1 10v10l62 1v-162v0z" />
    <glyph glyph-name="u" unicode="u" horiz-adv-x="652" 
d="M441 0v78q-28 -50 -67.5 -72.5t-97.5 -22.5q-91 0 -124 40t-33 124v205q0 40 -9.5 50.5t-47.5 10.5l-36 1v53h191v-305q0 -61 22.5 -86t77.5 -25q53 0 88.5 36t35.5 88v177q0 40 -9.5 50.5t-47.5 10.5l-36 1v53h191v-351q0 -43 9.5 -53.5t46.5 -10.5l30 1v-53h-184v0z
" />
    <glyph glyph-name="v" unicode="v" horiz-adv-x="542" 
d="M296 87l114 284l0.5 1t0.5 3q2 3 2.5 6.5t0.5 5.5q0 14 -8 19.5t-30 5.5l-42 1v54h222v-54h-29q-16 -1 -27 -11t-20 -32l-155 -370h-97l-145 355l-0.5 1.5t-1.5 2.5q-16 38 -35.5 45t-57.5 7l-1 56h274v-55h-47q-19 -1 -28 -5.5t-9 -14.5q0 -3 0.5 -6t1.5 -7
q0 -3 0.5 -5.5t1.5 -4.5l115 -282v0z" />
    <glyph glyph-name="w" unicode="w" horiz-adv-x="798" 
d="M572 101l90 271q1 1 1.5 2.5t0.5 3.5q1 4 1.5 7.5t0.5 6.5q0 12 -14 14.5t-55 2.5v58h214v-55q-42 -1 -55.5 -10.5t-21.5 -32.5q-2 -4 -3.5 -9t-3.5 -10l-123 -350h-103l-101 301l-113 -301h-96l-112 346q-13 41 -32 53t-59 12l-1 56h256v-57h-52q-12 -1 -18.5 -5.5
t-6.5 -13.5q0 -4 1 -9.5l2 -10.5l90 -276l105 285q2 4 2.5 7t0.5 6q0 8 -6 12t-19 4l-55 1v57h266v-57h-52q-15 -1 -21.5 -5t-6.5 -14v-2t1 -2q0 -1 0.5 -2t0.5 -2q1 -1 1.5 -2t0.5 -2l95 -278v0z" />
    <glyph glyph-name="x" unicode="x" horiz-adv-x="578" 
d="M345 249l156 -163q3 -4 6 -7l6 -6q9 -9 19 -15t25 -6l30 1v-53h-294v53h58q14 -1 19.5 3t5.5 12q0 6 -4 11t-8 9q-1 0 -2 1l-2 2l-86 93l-84 -82q-14 -14 -19 -20.5t-6 -11.5v-1.5v-1.5q0 -8 7.5 -11.5t28.5 -3.5l46 1v-53h-258v53q21 -1 34 0t25 6q8 3 16.5 9.5
t19.5 16.5l150 142l-134 141q-11 12 -20 20t-17 13q-13 7 -28 8.5t-39 1.5l-1 56h291v-57h-46q-16 -1 -22.5 -4t-6.5 -11q0 -5 3 -9.5t7 -7.5l2 -2l2 -2l78 -80l88 81q6 5 9.5 11t3.5 10q0 8 -5.5 10.5t-19.5 2.5l-46 1v57h248l2 -55h-26q-7 -1 -13 -2t-12 -3
q-12 -4 -24.5 -13t-31.5 -27l-131 -118v0z" />
    <glyph glyph-name="y" unicode="y" horiz-adv-x="548" 
d="M300 97l108 260q4 10 6 16t2 12v0.5v1.5q0 14 -7.5 19.5t-26.5 5.5l-46 1v54h226v-55h-25q-13 -1 -21 -3t-15 -11q-6 -7 -12.5 -20.5t-15.5 -35.5l-163 -374l-4 -10t-5 -9q-29 -67 -68 -110t-123 -43q-56 0 -89 29t-33 79q0 37 20 60t53 23q28 0 45.5 -17.5t17.5 -44.5
q0 -29 -16.5 -43.5t-48.5 -14.5l3.5 -3.5l3.5 -3.5q10 -9 21 -12t27 -3q44 0 74 29t58 99l-163 384q-1 0 -1.5 1.5t-0.5 2.5q-16 35 -35.5 42.5t-55.5 7.5l-1 56h271v-54h-43q-21 -1 -30 -5.5t-9 -14.5q0 -4 2 -12t6 -17q1 -2 1.5 -4t1.5 -4l111 -259v0z" />
    <glyph glyph-name="z" unicode="z" horiz-adv-x="486" 
d="M472 467v-54l-330 -356h141q88 -1 110.5 47t23.5 122l55 1v-227h-459v57l330 353h-143q-70 -1 -85.5 -43t-19.5 -102l-56 1v201h433v0z" />
    <glyph glyph-name="braceleft" unicode="{" horiz-adv-x="500" 
d="M227 235q34 -21 47 -48t13 -75v-148q0 -50 16.5 -65.5t69.5 -15.5h5t7 1v-86l-26 -1q-81 0 -125.5 26t-44.5 120v165q0 41 -12.5 61.5t-43.5 27.5v82q29 7 42.5 26t13.5 56v173q0 73 34.5 106t113.5 33h12h12q6 -1 12 -1h12v-85h-11q-53 -1 -70 -16t-17 -64v-151
q0 -49 -11.5 -74t-45.5 -46l-1 -0.5t-2 -1.5v1z" />
    <glyph glyph-name="bar" unicode="|" horiz-adv-x="500" 
d="M201 666h98v-833h-98v833v0z" />
    <glyph glyph-name="braceright" unicode="}" horiz-adv-x="500" 
d="M273 235q-1 0 -2 0.5l-1 0.5q-34 21 -46 46t-12 73v153q0 55 -23.5 66.5t-73.5 11.5v87q6 -1 12 -1t12 1h12h12q79 0 113.5 -33t34.5 -107v-171q0 -38 13 -57t43 -27v-80q-31 -8 -43.5 -28.5t-12.5 -62.5v-164q0 -78 -34 -112t-113 -34h-12h-12q-7 0 -13 0.5t-12 0.5v86
q4 -1 7 -1h5q53 0 69 15.5t16 65.5v149q0 47 13.5 74t47.5 47v1z" />
    <glyph glyph-name="asciitilde" unicode="~" horiz-adv-x="667" 
d="M148 572l-56 36q22 46 53.5 85.5t89.5 39.5q27 0 52.5 -9t50.5 -20l12.5 -6t13.5 -5q18 -8 36 -13t37 -5q17 0 30 5.5t26 18.5q6 7 12 16l13 20l57 -32q-22 -49 -57.5 -86t-94.5 -37q-26 0 -50 9t-47 20q-1 0 -2 0.5t-2 1.5q-23 10 -46 18.5t-47 8.5q-18 0 -32.5 -7.5
t-27.5 -25.5q-5 -7 -10.5 -15.5t-10.5 -18.5v1z" />
    <glyph glyph-name="Adieresis" unicode="&#xc4;" horiz-adv-x="757" 
d="M497 222h-282l-8 -20t-9 -20q-3 -9 -6.5 -17t-6.5 -17q-6 -15 -9.5 -29.5t-3.5 -27.5q0 -19 12 -27t43 -8l53 1v-57h-296v57q50 -1 71 6.5t37 36.5l10.5 22t11.5 27l207 518h105l227 -531q4 -8 7 -15.5t7 -13.5q11 -22 25 -36.5t46 -14.5l36 1v-57h-325v57h57
q27 -1 37.5 4t10.5 18q0 5 -2 11.5t-8 19.5l-47 112v0zM472 283l-123 286l-111 -286h234v0zM278 852q24 -1 40.5 -18t16.5 -41q0 -23 -17 -40t-40 -17t-40 17t-17 40q0 24 17 41t40 17v1zM480 852q24 -1 40.5 -18t16.5 -41q0 -23 -17 -40t-40 -17t-40 17t-17 40q0 24 17 41
t40 17v1z" />
    <glyph glyph-name="Aring" unicode="&#xc5;" horiz-adv-x="757" 
d="M497 222h-282l-8 -20t-9 -20q-3 -9 -6.5 -17t-6.5 -17q-6 -15 -9.5 -29.5t-3.5 -27.5q0 -19 12 -27t43 -8l53 1v-57h-296v57q50 -1 71 6.5t37 36.5l10.5 22t11.5 27l207 518h105l227 -531q4 -8 7 -15.5t7 -13.5q11 -22 25 -36.5t46 -14.5l36 1v-57h-325v57h57
q27 -1 37.5 4t10.5 18q0 5 -2 11.5t-8 19.5l-47 112v0zM472 283l-123 286l-111 -286h234v0zM380 889q41 -1 69.5 -29.5t28.5 -69.5t-28.5 -70t-69.5 -29t-70 29t-29 70t29 69.5t70 28.5v1zM380 845q-22 -1 -38 -16.5t-16 -38.5t16 -39t38 -16q23 0 39 16t16 39t-16 38.5
t-39 15.5v1z" />
    <glyph glyph-name="Ccedilla" unicode="&#xc7;" horiz-adv-x="722" 
d="M378 -17l-27 -40q9 2 15 3t11 2h4.5h4.5q35 0 57 -18.5t22 -46.5q0 -35 -30.5 -57.5t-77.5 -22.5q-10 0 -19.5 0.5t-19.5 2.5q-14 2 -28.5 6.5t-31.5 11.5l15 33q19 -8 34.5 -12t30.5 -5h5h4q25 0 39.5 10.5t14.5 28.5q0 16 -13 26.5t-33 10.5h-3.5h-3.5q-7 -1 -14.5 -3
t-18.5 -6l-17 16l43 62q-132 13 -211.5 104t-79.5 229q0 160 88.5 262t227.5 102q45 0 77.5 -6.5t62.5 -20.5q18 -9 37 -21t40 -28l30 68h54v-268h-54q-11 90 -69.5 146.5t-140.5 56.5q-106 0 -169 -78t-63 -210q0 -118 61.5 -190t163.5 -72q86 0 146.5 55t76.5 148l67 1
q-14 -134 -94 -207t-214 -73v0z" />
    <glyph glyph-name="Eacute" unicode="&#xc9;" horiz-adv-x="753" 
d="M251 606v-231h97q41 -1 61.5 19.5t20.5 62.5v45h58v-315h-58v35q0 50 -19 72.5t-61 22.5l-99 1v-257h189q133 -1 160.5 52t27.5 171l61 1v-285h-656v57h44q41 -1 53.5 10t12.5 48v436q0 36 -12.5 47t-53.5 11l-44 1v57h645v-249h-59q0 70 -24.5 128.5t-110.5 58.5l-233 1
v0zM334 717h-46l62 147h88q13 -1 19.5 -5t6.5 -12q0 -2 -0.5 -3.5t-0.5 -2.5q-1 -3 -4 -6.5t-8 -8.5l-117 -109v0z" />
    <glyph glyph-name="Ntilde" unicode="&#xd1;" horiz-adv-x="823" 
d="M261 667l371 -500v384q0 39 -14 48.5t-96 9.5v58h274v-57h-30q-40 -1 -53 -12t-13 -48v-550h-81l-413 553v-437q0 -38 12.5 -49t53.5 -11l44 1v-57h-283v57h38q41 -1 53.5 10t12.5 48v436q0 36 -12.5 47t-53.5 11l-38 1v57h228v0zM537 851h51q0 -53 -27 -87t-68 -34
q-22 0 -44 6t-44 13q-11 4 -22 7l-22 6q-10 3 -21 4.5t-22 1.5q-17 0 -24 -10t-8 -35l-54 1q1 55 25.5 87t67.5 32q23 0 44.5 -5.5l43.5 -11.5q22 -7 44 -12.5t44 -5.5q17 0 26 10.5t10 31.5v1z" />
    <glyph glyph-name="Odieresis" unicode="&#xd6;" horiz-adv-x="803" 
d="M398 683q62 -1 115 -14.5t93 -39.5q68 -43 107.5 -120.5t39.5 -164.5q0 -168 -94 -264.5t-264 -96.5q-154 0 -249.5 95t-95.5 248q0 159 94 257.5t254 98.5v1zM401 621q-107 -1 -168.5 -78t-61.5 -212q0 -76 14 -125t46 -87q31 -36 75 -55.5t93 -19.5q113 0 173.5 77.5
t60.5 221.5q0 125 -64 201t-168 76v1zM301 852q24 -1 40.5 -18t16.5 -41q0 -23 -17 -40t-40 -17t-40 17t-17 40q0 24 17 41t40 17v1zM503 852q24 -1 40.5 -18t16.5 -41q0 -23 -17 -40t-40 -17t-40 17t-17 40q0 24 17 41t40 17v1z" />
    <glyph glyph-name="Udieresis" unicode="&#xdc;" horiz-adv-x="776" 
d="M16 611v56h320v-56h-38q-40 -1 -53 -12.5t-13 -48.5v-340q0 -79 48 -115.5t122 -36.5q101 0 142.5 49.5t41.5 144.5v299q0 36 -12.5 47.5t-53.5 11.5l-44 1v56h283v-56h-38q-41 -1 -53.5 -12.5t-12.5 -48.5v-340q0 -124 -78 -175.5t-190 -51.5q-118 0 -192.5 52.5
t-74.5 179.5v336q0 36 -12.5 47.5t-53.5 11.5l-38 1v0zM288 852q24 -1 40.5 -18t16.5 -41q0 -23 -17 -40t-40 -17t-40 17t-17 40q0 24 17 41t40 17v1zM490 852q24 -1 40.5 -18t16.5 -41q0 -23 -17 -40t-40 -17t-40 17t-17 40q0 24 17 41t40 17v1z" />
    <glyph glyph-name="aacute" unicode="&#xe1;" horiz-adv-x="570" 
d="M511 197h52v-41q0 -65 -14.5 -116.5t-101.5 -51.5q-44 0 -69.5 23.5t-31.5 70.5q-1 -2 -2.5 -4t-2.5 -4q-35 -49 -72.5 -70t-91.5 -21q-64 0 -102.5 34t-38.5 92q0 71 39.5 105t139.5 50q11 2 21 3.5t19 2.5q60 11 77 25.5t17 48.5q0 43 -28 64.5t-84 21.5
q-31 0 -55.5 -7.5t-41.5 -23.5q22 -4 31.5 -15t9.5 -31q0 -26 -17.5 -42t-45.5 -16q-25 0 -42 18.5t-17 46.5q0 56 50 89t137 33q50 0 85.5 -7t60.5 -22q29 -17 40.5 -41t11.5 -70v-238q0 -26 7.5 -38.5t23.5 -12.5q23 0 29.5 19.5t6.5 82.5v42v0zM346 252l-15.5 -8.5
t-13.5 -6.5q-2 -1 -5 -2t-5 -2q-7 -2 -15 -5t-19 -6q-32 -10 -54.5 -18t-37.5 -15q-26 -13 -33 -27.5t-7 -40.5q0 -31 20.5 -49.5t56.5 -18.5q58 0 93 37t35 97v65v0zM223 516h-46l62 147h88q13 -1 19.5 -5t6.5 -12q0 -2 -0.5 -3.5t-0.5 -2.5q-1 -3 -4 -6.5t-8 -8.5
l-117 -109v0z" />
    <glyph glyph-name="agrave" unicode="&#xe0;" horiz-adv-x="570" 
d="M511 197h52v-41q0 -65 -14.5 -116.5t-101.5 -51.5q-44 0 -69.5 23.5t-31.5 70.5q-1 -2 -2.5 -4t-2.5 -4q-35 -49 -72.5 -70t-91.5 -21q-64 0 -102.5 34t-38.5 92q0 71 39.5 105t139.5 50q11 2 21 3.5t19 2.5q60 11 77 25.5t17 48.5q0 43 -28 64.5t-84 21.5
q-31 0 -55.5 -7.5t-41.5 -23.5q22 -4 31.5 -15t9.5 -31q0 -26 -17.5 -42t-45.5 -16q-25 0 -42 18.5t-17 46.5q0 56 50 89t137 33q50 0 85.5 -7t60.5 -22q29 -17 40.5 -41t11.5 -70v-238q0 -26 7.5 -38.5t23.5 -12.5q23 0 29.5 19.5t6.5 82.5v42v0zM346 252l-15.5 -8.5
t-13.5 -6.5q-2 -1 -5 -2t-5 -2q-7 -2 -15 -5t-19 -6q-32 -10 -54.5 -18t-37.5 -15q-26 -13 -33 -27.5t-7 -40.5q0 -31 20.5 -49.5t56.5 -18.5q58 0 93 37t35 97v65v0zM306 516l-116 110q-5 4 -8 7t-4 6q0 2 -0.5 3.5t-0.5 3.5q0 8 6.5 12t19.5 4l87 1l63 -147h-47v0z" />
    <glyph glyph-name="acircumflex" unicode="&#xe2;" horiz-adv-x="570" 
d="M511 197h52v-41q0 -65 -14.5 -116.5t-101.5 -51.5q-44 0 -69.5 23.5t-31.5 70.5q-1 -2 -2.5 -4t-2.5 -4q-35 -49 -72.5 -70t-91.5 -21q-64 0 -102.5 34t-38.5 92q0 71 39.5 105t139.5 50q11 2 21 3.5t19 2.5q60 11 77 25.5t17 48.5q0 43 -28 64.5t-84 21.5
q-31 0 -55.5 -7.5t-41.5 -23.5q22 -4 31.5 -15t9.5 -31q0 -26 -17.5 -42t-45.5 -16q-25 0 -42 18.5t-17 46.5q0 56 50 89t137 33q50 0 85.5 -7t60.5 -22q29 -17 40.5 -41t11.5 -70v-238q0 -26 7.5 -38.5t23.5 -12.5q23 0 29.5 19.5t6.5 82.5v42v0zM346 252l-15.5 -8.5
t-13.5 -6.5q-2 -1 -5 -2t-5 -2q-7 -2 -15 -5t-19 -6q-32 -10 -54.5 -18t-37.5 -15q-26 -13 -33 -27.5t-7 -40.5q0 -31 20.5 -49.5t56.5 -18.5q58 0 93 37t35 97v65v0zM258 607l-81 -84h-65l109 145h96l101 -145h-88l-72 84v0z" />
    <glyph glyph-name="adieresis" unicode="&#xe4;" horiz-adv-x="570" 
d="M511 197h52v-41q0 -65 -14.5 -116.5t-101.5 -51.5q-44 0 -69.5 23.5t-31.5 70.5q-1 -2 -2.5 -4t-2.5 -4q-35 -49 -72.5 -70t-91.5 -21q-64 0 -102.5 34t-38.5 92q0 71 39.5 105t139.5 50q11 2 21 3.5t19 2.5q60 11 77 25.5t17 48.5q0 43 -28 64.5t-84 21.5
q-31 0 -55.5 -7.5t-41.5 -23.5q22 -4 31.5 -15t9.5 -31q0 -26 -17.5 -42t-45.5 -16q-25 0 -42 18.5t-17 46.5q0 56 50 89t137 33q50 0 85.5 -7t60.5 -22q29 -17 40.5 -41t11.5 -70v-238q0 -26 7.5 -38.5t23.5 -12.5q23 0 29.5 19.5t6.5 82.5v42v0zM346 252l-15.5 -8.5
t-13.5 -6.5q-2 -1 -5 -2t-5 -2q-7 -2 -15 -5t-19 -6q-32 -10 -54.5 -18t-37.5 -15q-26 -13 -33 -27.5t-7 -40.5q0 -31 20.5 -49.5t56.5 -18.5q58 0 93 37t35 97v65v0zM163 659q24 -1 40.5 -18t16.5 -41q0 -23 -17 -40t-40 -17t-40 17t-17 40q0 24 17 41t40 17v1zM365 659
q24 -1 40.5 -18t16.5 -41q0 -23 -17 -40t-40 -17t-40 17t-17 40q0 24 17 41t40 17v1z" />
    <glyph glyph-name="atilde" unicode="&#xe3;" horiz-adv-x="570" 
d="M511 197h52v-41q0 -65 -14.5 -116.5t-101.5 -51.5q-44 0 -69.5 23.5t-31.5 70.5q-1 -2 -2.5 -4t-2.5 -4q-35 -49 -72.5 -70t-91.5 -21q-64 0 -102.5 34t-38.5 92q0 71 39.5 105t139.5 50q11 2 21 3.5t19 2.5q60 11 77 25.5t17 48.5q0 43 -28 64.5t-84 21.5
q-31 0 -55.5 -7.5t-41.5 -23.5q22 -4 31.5 -15t9.5 -31q0 -26 -17.5 -42t-45.5 -16q-25 0 -42 18.5t-17 46.5q0 56 50 89t137 33q50 0 85.5 -7t60.5 -22q29 -17 40.5 -41t11.5 -70v-238q0 -26 7.5 -38.5t23.5 -12.5q23 0 29.5 19.5t6.5 82.5v42v0zM346 252l-15.5 -8.5
t-13.5 -6.5q-2 -1 -5 -2t-5 -2q-7 -2 -15 -5t-19 -6q-32 -10 -54.5 -18t-37.5 -15q-26 -13 -33 -27.5t-7 -40.5q0 -31 20.5 -49.5t56.5 -18.5q58 0 93 37t35 97v65v0zM392 650h51q0 -53 -27 -87t-68 -34q-22 0 -44 6t-44 13q-11 4 -22 7l-22 6q-10 3 -21 4.5t-22 1.5
q-17 0 -24 -10t-8 -35l-54 1q1 55 25.5 87t67.5 32q23 0 44.5 -5.5l43.5 -11.5q22 -7 44 -12.5t44 -5.5q17 0 26 10.5t10 31.5v1z" />
    <glyph glyph-name="aring" unicode="&#xe5;" horiz-adv-x="570" 
d="M511 197h52v-41q0 -65 -14.5 -116.5t-101.5 -51.5q-44 0 -69.5 23.5t-31.5 70.5q-1 -2 -2.5 -4t-2.5 -4q-35 -49 -72.5 -70t-91.5 -21q-64 0 -102.5 34t-38.5 92q0 71 39.5 105t139.5 50q11 2 21 3.5t19 2.5q60 11 77 25.5t17 48.5q0 43 -28 64.5t-84 21.5
q-31 0 -55.5 -7.5t-41.5 -23.5q22 -4 31.5 -15t9.5 -31q0 -26 -17.5 -42t-45.5 -16q-25 0 -42 18.5t-17 46.5q0 56 50 89t137 33q50 0 85.5 -7t60.5 -22q29 -17 40.5 -41t11.5 -70v-238q0 -26 7.5 -38.5t23.5 -12.5q23 0 29.5 19.5t6.5 82.5v42v0zM346 252l-15.5 -8.5
t-13.5 -6.5q-2 -1 -5 -2t-5 -2q-7 -2 -15 -5t-19 -6q-32 -10 -54.5 -18t-37.5 -15q-26 -13 -33 -27.5t-7 -40.5q0 -31 20.5 -49.5t56.5 -18.5q58 0 93 37t35 97v65v0zM266 699q41 -1 69.5 -29.5t28.5 -69.5t-28.5 -70t-69.5 -29t-70 29t-29 70t29 69.5t70 28.5v1zM266 655
q-22 -1 -38 -16.5t-16 -38.5t16 -39t38 -16q23 0 39 16t16 39t-16 38.5t-39 15.5v1z" />
    <glyph glyph-name="ccedilla" unicode="&#xe7;" horiz-adv-x="544" 
d="M289 -17l-27 -40q9 2 15 3t11 2h4.5h4.5q35 0 57 -18.5t22 -47.5q0 -35 -30.5 -57t-77.5 -22q-10 0 -19.5 0.5t-19.5 2.5q-14 2 -28.5 6.5t-31.5 11.5l15 33q19 -8 34.5 -12t30.5 -5h5h4q25 0 39.5 10.5t14.5 28.5q0 16 -13 26.5t-33 10.5h-4h-4q-7 -1 -14 -3.5t-17 -5.5
l-18 16l43 62q-98 10 -151.5 75t-53.5 162q0 122 64.5 191t179.5 69q89 0 146 -37.5t57 -96.5q0 -37 -19.5 -59.5t-53.5 -22.5q-28 0 -46 18t-18 46q0 18 9 31.5t22 15.5h1.5h1.5q1 1 2.5 1h2.5q4 0 7 1.5t3 5.5q0 11 -18 20t-39 14q-14 3 -26.5 4.5t-20.5 1.5
q-70 0 -109.5 -51.5t-39.5 -143.5q0 -85 41 -133.5t114 -48.5q52 0 89.5 39t48.5 104l58 1q-13 -93 -65 -150.5t-150 -58.5v0z" />
    <glyph glyph-name="eacute" unicode="&#xe9;" horiz-adv-x="558" 
d="M515 229h-361q2 -74 33.5 -126.5t114.5 -52.5q55 0 94.5 33t52.5 90l64 1q-19 -92 -78.5 -141.5t-146.5 -49.5q-109 0 -175 67t-66 176q0 119 64.5 187.5t174.5 68.5q81 0 141 -39.5t77 -104.5q3 -9 4.5 -16.5t2.5 -13.5q3 -14 3.5 -30.5t0.5 -49.5v1zM409 286
q-2 67 -35 103.5t-90 36.5q-53 0 -88.5 -38.5t-41.5 -102.5l255 1v0zM238 516h-46l62 147h88q13 -1 19.5 -5t6.5 -12q0 -2 -0.5 -3.5t-0.5 -2.5q-1 -3 -4 -6.5t-8 -8.5l-117 -109v0z" />
    <glyph glyph-name="egrave" unicode="&#xe8;" horiz-adv-x="558" 
d="M515 229h-361q2 -74 33.5 -126.5t114.5 -52.5q55 0 94.5 33t52.5 90l64 1q-19 -92 -78.5 -141.5t-146.5 -49.5q-109 0 -175 67t-66 176q0 119 64.5 187.5t174.5 68.5q81 0 141 -39.5t77 -104.5q3 -9 4.5 -16.5t2.5 -13.5q3 -14 3.5 -30.5t0.5 -49.5v1zM409 286
q-2 67 -35 103.5t-90 36.5q-53 0 -88.5 -38.5t-41.5 -102.5l255 1v0zM321 516l-116 110q-5 4 -8 7t-4 6q0 2 -0.5 3.5t-0.5 3.5q0 8 6.5 12t19.5 4l87 1l63 -147h-47v0z" />
    <glyph glyph-name="ecircumflex" unicode="&#xea;" horiz-adv-x="558" 
d="M515 229h-361q2 -74 33.5 -126.5t114.5 -52.5q55 0 94.5 33t52.5 90l64 1q-19 -92 -78.5 -141.5t-146.5 -49.5q-109 0 -175 67t-66 176q0 119 64.5 187.5t174.5 68.5q81 0 141 -39.5t77 -104.5q3 -9 4.5 -16.5t2.5 -13.5q3 -14 3.5 -30.5t0.5 -49.5v1zM409 286
q-2 67 -35 103.5t-90 36.5q-53 0 -88.5 -38.5t-41.5 -102.5l255 1v0zM273 607l-81 -84h-65l109 145h96l101 -145h-88l-72 84v0z" />
    <glyph glyph-name="edieresis" unicode="&#xeb;" horiz-adv-x="558" 
d="M515 229h-361q2 -74 33.5 -126.5t114.5 -52.5q55 0 94.5 33t52.5 90l64 1q-19 -92 -78.5 -141.5t-146.5 -49.5q-109 0 -175 67t-66 176q0 119 64.5 187.5t174.5 68.5q81 0 141 -39.5t77 -104.5q3 -9 4.5 -16.5t2.5 -13.5q3 -14 3.5 -30.5t0.5 -49.5v1zM409 286
q-2 67 -35 103.5t-90 36.5q-53 0 -88.5 -38.5t-41.5 -102.5l255 1v0zM178 659q24 -1 40.5 -18t16.5 -41q0 -23 -17 -40t-40 -17t-40 17t-17 40q0 24 17 41t40 17v1zM380 659q24 -1 40.5 -18t16.5 -41q0 -23 -17 -40t-40 -17t-40 17t-17 40q0 24 17 41t40 17v1z" />
    <glyph glyph-name="iacute" unicode="&#xed;" horiz-adv-x="346" 
d="M227 467v-351q0 -42 9.5 -53t46.5 -11l36 1v-53h-289v53h42q38 -1 47.5 10t9.5 52v236q0 40 -9.5 50.5t-47.5 10.5l-42 1v54h197v0zM132 517h-46l62 147h88q13 -1 19.5 -5t6.5 -12q0 -2 -0.5 -3.5t-0.5 -2.5q-1 -3 -4 -6.5t-8 -8.5l-117 -109v0z" />
    <glyph glyph-name="igrave" unicode="&#xec;" horiz-adv-x="346" 
d="M227 467v-351q0 -42 9.5 -53t46.5 -11l36 1v-53h-289v53h42q38 -1 47.5 10t9.5 52v236q0 40 -9.5 50.5t-47.5 10.5l-42 1v54h197v0zM194 517l-116 110q-5 4 -8 7t-4 6q0 2 -0.5 3.5t-0.5 3.5q0 8 6.5 12t19.5 4l87 1l63 -147h-47v0z" />
    <glyph glyph-name="icircumflex" unicode="&#xee;" horiz-adv-x="346" 
d="M227 467v-351q0 -42 9.5 -53t46.5 -11l36 1v-53h-289v53h42q38 -1 47.5 10t9.5 52v236q0 40 -9.5 50.5t-47.5 10.5l-42 1v54h197v0zM153 607l-81 -84h-65l109 145h96l101 -145h-88l-72 84v0z" />
    <glyph glyph-name="idieresis" unicode="&#xef;" horiz-adv-x="348" 
d="M227 467v-351q0 -42 9.5 -53t46.5 -11l36 1v-53h-289v53h42q38 -1 47.5 10t9.5 52v236q0 40 -9.5 50.5t-47.5 10.5l-42 1v54h197v0zM55 659q24 -1 40.5 -18t16.5 -41q0 -23 -17 -40t-40 -17t-39.5 17t-16.5 40q0 24 16.5 41t39.5 17v1zM257 659q24 -1 40.5 -18t16.5 -41
q0 -23 -17 -40t-40 -17t-40 17t-17 40q0 24 17 41t40 17v1z" />
    <glyph glyph-name="ntilde" unicode="&#xf1;" horiz-adv-x="661" 
d="M221 467l-4 -76l21 24.5t20 20.5q28 26 58.5 36t71.5 10q74 0 117.5 -39.5t43.5 -114.5v-212q0 -42 9.5 -53t46.5 -11l30 1v-53h-273v53h29q38 -1 47.5 10t9.5 52v193q0 54 -23 80t-71 26q-59 0 -96 -32.5t-37 -85.5v-180q0 -42 9.5 -53t46.5 -11l30 1v-53h-277v53h36
q38 -1 47.5 10t9.5 52v236q0 40 -9.5 50.5t-47.5 10.5l-36 1v54h191v0zM457 651h51q0 -53 -27 -87t-68 -34q-22 0 -44 6t-44 13q-11 4 -22 7l-22 6q-10 3 -21 4.5t-22 1.5q-17 0 -24 -10t-8 -35l-54 1q1 55 25.5 87t67.5 32q23 0 44.5 -5.5l43.5 -11.5q22 -7 44 -12.5
t44 -5.5q17 0 26 10.5t10 31.5v1z" />
    <glyph glyph-name="oacute" unicode="&#xf3;" horiz-adv-x="598" 
d="M299 483q111 -1 181.5 -69.5t70.5 -177.5q0 -116 -68 -184.5t-183 -68.5q-109 0 -181.5 65.5t-72.5 177.5q0 118 68.5 187t184.5 69v1zM297 424q-65 -1 -103 -53t-38 -142q0 -93 37 -140.5t109 -47.5q65 0 102 48.5t37 134.5q0 97 -37 148t-107 51v1zM257 516h-46l62 147
h88q13 -1 19.5 -5t6.5 -12q0 -2 -0.5 -3.5t-0.5 -2.5q-1 -3 -4 -6.5t-8 -8.5l-117 -109v0z" />
    <glyph glyph-name="ograve" unicode="&#xf2;" horiz-adv-x="598" 
d="M299 483q111 -1 181.5 -69.5t70.5 -177.5q0 -116 -68 -184.5t-183 -68.5q-109 0 -181.5 65.5t-72.5 177.5q0 118 68.5 187t184.5 69v1zM297 424q-65 -1 -103 -53t-38 -142q0 -93 37 -140.5t109 -47.5q65 0 102 48.5t37 134.5q0 97 -37 148t-107 51v1zM340 516l-116 110
q-5 4 -8 7t-4 6q0 2 -0.5 3.5t-0.5 3.5q0 8 6.5 12t19.5 4l87 1l63 -147h-47v0z" />
    <glyph glyph-name="ocircumflex" unicode="&#xf4;" horiz-adv-x="598" 
d="M299 483q111 -1 181.5 -69.5t70.5 -177.5q0 -116 -68 -184.5t-183 -68.5q-109 0 -181.5 65.5t-72.5 177.5q0 118 68.5 187t184.5 69v1zM297 424q-65 -1 -103 -53t-38 -142q0 -93 37 -140.5t109 -47.5q65 0 102 48.5t37 134.5q0 97 -37 148t-107 51v1zM292 607l-81 -84
h-65l109 145h96l101 -145h-88l-72 84v0z" />
    <glyph glyph-name="odieresis" unicode="&#xf6;" horiz-adv-x="598" 
d="M299 483q111 -1 181.5 -69.5t70.5 -177.5q0 -116 -68 -184.5t-183 -68.5q-109 0 -181.5 65.5t-72.5 177.5q0 118 68.5 187t184.5 69v1zM297 424q-65 -1 -103 -53t-38 -142q0 -93 37 -140.5t109 -47.5q65 0 102 48.5t37 134.5q0 97 -37 148t-107 51v1zM197 659
q24 -1 40.5 -18t16.5 -41q0 -23 -17 -40t-40 -17t-40 17t-17 40q0 24 17 41t40 17v1zM399 659q24 -1 40.5 -18t16.5 -41q0 -23 -17 -40t-40 -17t-40 17t-17 40q0 24 17 41t40 17v1z" />
    <glyph glyph-name="otilde" unicode="&#xf5;" horiz-adv-x="598" 
d="M299 483q111 -1 181.5 -69.5t70.5 -177.5q0 -116 -68 -184.5t-183 -68.5q-109 0 -181.5 65.5t-72.5 177.5q0 118 68.5 187t184.5 69v1zM297 424q-65 -1 -103 -53t-38 -142q0 -93 37 -140.5t109 -47.5q65 0 102 48.5t37 134.5q0 97 -37 148t-107 51v1zM426 650h51
q0 -53 -27 -87t-68 -34q-22 0 -44 6t-44 13q-11 4 -22 7l-22 6q-10 3 -21 4.5t-22 1.5q-17 0 -24 -10t-8 -35l-54 1q1 55 25.5 87t67.5 32q23 0 44.5 -5.5l43.5 -11.5q22 -7 44 -12.5t44 -5.5q17 0 26 10.5t10 31.5v1z" />
    <glyph glyph-name="uacute" unicode="&#xfa;" horiz-adv-x="652" 
d="M441 0v78q-28 -50 -67.5 -72.5t-97.5 -22.5q-91 0 -124 40t-33 124v205q0 40 -9.5 50.5t-47.5 10.5l-36 1v53h191v-305q0 -61 22.5 -86t77.5 -25q53 0 88.5 36t35.5 88v177q0 40 -9.5 50.5t-47.5 10.5l-36 1v53h191v-351q0 -43 9.5 -53.5t46.5 -10.5l30 1v-53h-184v0z
M283 516h-46l62 147h88q13 -1 19.5 -5t6.5 -12q0 -2 -0.5 -3.5t-0.5 -2.5q-1 -3 -4 -6.5t-8 -8.5l-117 -109v0z" />
    <glyph glyph-name="ugrave" unicode="&#xf9;" horiz-adv-x="652" 
d="M441 0v78q-28 -50 -67.5 -72.5t-97.5 -22.5q-91 0 -124 40t-33 124v205q0 40 -9.5 50.5t-47.5 10.5l-36 1v53h191v-305q0 -61 22.5 -86t77.5 -25q53 0 88.5 36t35.5 88v177q0 40 -9.5 50.5t-47.5 10.5l-36 1v53h191v-351q0 -43 9.5 -53.5t46.5 -10.5l30 1v-53h-184v0z
M366 516l-116 110q-5 4 -8 7t-4 6q0 2 -0.5 3.5t-0.5 3.5q0 8 6.5 12t19.5 4l87 1l63 -147h-47v0z" />
    <glyph glyph-name="ucircumflex" unicode="&#xfb;" horiz-adv-x="652" 
d="M441 0v78q-28 -50 -67.5 -72.5t-97.5 -22.5q-91 0 -124 40t-33 124v205q0 40 -9.5 50.5t-47.5 10.5l-36 1v53h191v-305q0 -61 22.5 -86t77.5 -25q53 0 88.5 36t35.5 88v177q0 40 -9.5 50.5t-47.5 10.5l-36 1v53h191v-351q0 -43 9.5 -53.5t46.5 -10.5l30 1v-53h-184v0z
M318 607l-81 -84h-65l109 145h96l101 -145h-88l-72 84v0z" />
    <glyph glyph-name="udieresis" unicode="&#xfc;" horiz-adv-x="652" 
d="M441 0v78q-28 -50 -67.5 -72.5t-97.5 -22.5q-91 0 -124 40t-33 124v205q0 40 -9.5 50.5t-47.5 10.5l-36 1v53h191v-305q0 -61 22.5 -86t77.5 -25q53 0 88.5 36t35.5 88v177q0 40 -9.5 50.5t-47.5 10.5l-36 1v53h191v-351q0 -43 9.5 -53.5t46.5 -10.5l30 1v-53h-184v0z
M223 659q24 -1 40.5 -18t16.5 -41q0 -23 -17 -40t-40 -17t-40 17t-17 40q0 24 17 41t40 17v1zM425 659q24 -1 40.5 -18t16.5 -41q0 -23 -17 -40t-40 -17t-40 17t-17 40q0 24 17 41t40 17v1z" />
    <glyph glyph-name="dagger" unicode="&#x2020;" horiz-adv-x="567" 
d="M261 410q-10 -3 -22 -8l-25 -10q-1 0 -2.5 -1t-2.5 -1l-35.5 -14.5t-23.5 -6.5q-28 0 -46.5 18.5t-18.5 47.5t17 47.5t45 18.5q14 0 27.5 -6t25.5 -12q1 -1 2 -1.5t2 -1.5q5 -2 9 -4l8 -4l12.5 -4t15.5 -4q3 0 6 -0.5t6 -1.5q0 23 -6 43.5t-13 39.5q-2 4 -3 7l-2 6
q-6 16 -10.5 32.5t-4.5 34.5q0 27 16.5 42t45.5 15t45 -15t16 -42q0 -18 -4 -33.5t-10 -30.5q-1 -4 -2.5 -7.5t-2.5 -6.5q-7 -19 -13 -39.5t-6 -45.5q7 1 14 3.5t14 4.5q6 3 12.5 5.5t13.5 5.5l33 13.5t27 6.5q28 0 45 -18.5t17 -47.5t-18 -47.5t-47 -18.5q-7 0 -23.5 6.5
l-35.5 14.5q-1 0 -2 0.5t-2 1.5l-25.5 10t-22.5 7q0 -51 3 -101.5l6 -101.5q0 -9 0.5 -17.5t1.5 -16.5q1 -25 4.5 -52t8.5 -54q0 -4 0.5 -7t1.5 -7l10 -74.5t5 -66.5q0 -39 -17 -62t-47 -23t-47 23t-17 62q0 11 1.5 27.5t4.5 36.5q15 107 25 216t10 218v1z" />
    <glyph glyph-name="degree" horiz-adv-x="413" 
d="M207 682q65 -1 110 -46.5t45 -110.5q0 -64 -45 -109.5t-110 -45.5q-64 0 -110 45.5t-46 109.5q0 65 46 110.5t110 45.5v1zM206 631q-43 -1 -74 -31.5t-31 -74.5t31 -75t74 -31q44 0 75 31t31 75t-31 74.5t-75 30.5v1z" />
    <glyph glyph-name="cent" unicode="&#xa2;" horiz-adv-x="567" 
d="M278 585v98h53v-98q75 -6 124.5 -44.5t49.5 -92.5q0 -34 -21 -54.5t-53 -20.5q-27 0 -45 17.5t-18 42.5q0 21 10 34t27 15q5 1 7 2.5t2 4.5q0 2 -1 4l-2 4q-7 10 -25.5 18t-38.5 11q-4 0 -8 0.5t-8 0.5v-375q48 5 81 42t43 95l57 1q-10 -84 -59 -139t-122 -65v-107h-53
v108q-103 7 -162.5 71.5t-59.5 169.5q0 116 58 183.5t164 72.5v1zM278 525q-53 -8 -85 -59.5t-32 -131.5q0 -75 30.5 -121.5t86.5 -57.5v370v0z" />
    <glyph glyph-name="sterling" unicode="&#xa3;" horiz-adv-x="567" 
d="M245 334h136v-50h-120q1 -8 2 -13t2 -9v-5.5v-5.5q0 -46 -24.5 -81t-53.5 -67q-1 -1 -1.5 -2t-1.5 -1l-7.5 -9t-7.5 -8q25 14 44 21.5t37 10.5q5 0 10.5 0.5t10.5 0.5q23 0 44.5 -8.5t41.5 -17.5q9 -5 17 -9t16 -7q12 -5 24 -8t24 -3q23 0 33 19t10 65v6t-1 11l55 1
q-1 -10 -1.5 -19.5t-1.5 -19.5q0 -5 -0.5 -10t-0.5 -11q-4 -46 -22 -84t-87 -38q-30 0 -58.5 9t-55.5 20q-14 6 -28.5 11.5l-28.5 10.5q-12 3 -24.5 5.5t-25.5 2.5q-4 0 -8.5 -0.5t-8.5 -0.5q-21 -3 -42.5 -14.5t-45.5 -31.5l-24 60q53 39 79 82t26 91q0 11 -3.5 25
t-11.5 30l-90 1v50h61q-22 34 -33 65.5t-11 61.5q0 83 63 137t159 54q99 0 156.5 -42t57.5 -116q0 -40 -19.5 -63.5t-52.5 -23.5q-26 0 -44 17.5t-18 42.5q0 23 15 37.5t37 14.5h3h3q3 0 6.5 -0.5t9.5 -2.5q-9 32 -44.5 50.5t-90.5 18.5q-58 0 -95.5 -32t-37.5 -82
q0 -29 10.5 -56t23.5 -53q4 -7 7.5 -14.5l6.5 -14.5v1z" />
    <glyph glyph-name="section" unicode="&#xa7;" horiz-adv-x="567" 
d="M169 -96q17 -14 38 -20t52 -6q63 0 99 26.5t36 72.5q0 48 -44.5 72t-102.5 42l-12.5 4t-12.5 5q-65 21 -119 53t-54 103q0 49 27 83t86 59q-37 24 -56.5 54t-19.5 65q0 73 56 119.5t144 46.5q83 0 135.5 -34.5t52.5 -89.5q0 -29 -19.5 -48.5t-49.5 -19.5
q-25 0 -43.5 17.5t-18.5 40.5q0 15 4.5 26t16.5 22q3 2 6.5 5t7.5 6q-17 11 -36.5 16t-51.5 5q-49 0 -82.5 -24.5t-33.5 -60.5q0 -48 43 -70.5t100 -39.5q7 -3 14.5 -5l14.5 -4q65 -21 118.5 -53.5t53.5 -105.5q0 -45 -23.5 -78t-78.5 -63q40 -23 58 -54t18 -74
q0 -80 -60.5 -127t-162.5 -47q-83 0 -140 38t-57 94q0 31 21 52t52 21q29 0 48 -17t19 -45q0 -11 -4 -21t-12 -19q-5 -5 -12 -10.5l-15 -11.5v0zM431 238q0 17 -6.5 30.5t-23.5 25.5q-12 9 -30 18.5t-44 20.5q-35 14 -58 21t-43 9h-6.5h-6.5q-31 0 -54 -24.5t-23 -56.5
q0 -31 36.5 -56t79.5 -40q31 -11 59.5 -17t43.5 -6q30 0 53 22.5t23 51.5v1z" />
    <glyph glyph-name="bullet" horiz-adv-x="600" 
d="M198 286q0 39 28 67t68 28q41 0 69.5 -28t28.5 -68t-28.5 -68t-69.5 -28q-40 0 -68 28t-28 68v1z" />
    <glyph glyph-name="paragraph" unicode="&#xb6;" horiz-adv-x="567" 
d="M201 -96v413q-80 -1 -137 42t-57 129q0 103 68.5 140t156.5 37l299 1v-76h-66v-686h-84v686h-95v-686h-85v0z" />
    <glyph glyph-name="germandbls" unicode="&#xdf;" horiz-adv-x="601" 
d="M270 162h52v-46q0 -37 15 -56t43 -19q38 0 53.5 36.5t15.5 127.5q0 71 -35 122t-115 51h-7.5h-6.5q-4 -1 -7 -1.5t-8 -1.5v58q6 -1 11 -1.5t9 -0.5h5h6q57 0 84 23.5t27 73.5q0 44 -26.5 68.5t-76.5 24.5q-52 0 -75 -31t-23 -99v-491h-184v53h29q38 -1 47.5 9.5t9.5 52.5
v377q0 51 11 82t36 53t56.5 32.5t64.5 13.5q9 1 17 1.5t16 0.5q93 0 146 -38t53 -104q0 -49 -25.5 -78t-84.5 -48q34 -7 54 -16.5t37 -28.5q3 -3 5.5 -6t5.5 -7q24 -31 36.5 -71.5t12.5 -87.5q0 -92 -47 -149.5t-121 -57.5q-83 0 -99.5 54.5t-16.5 120.5v1.5v1.5v1z" />
    <glyph glyph-name="registered" unicode="&#xae;" horiz-adv-x="769" 
d="M387 683q142 -1 242.5 -103.5t100.5 -247.5t-100.5 -247t-242.5 -102q-145 0 -246.5 102t-101.5 247q0 146 101.5 248t246.5 102v1zM386 633q-121 -1 -206.5 -88.5t-85.5 -212.5q0 -124 85.5 -212t206.5 -88q119 0 204 88t85 212q0 125 -85 212.5t-204 87.5v1zM561 261
h40v-44q0 -43 -18.5 -62t-59.5 -19q-52 0 -62.5 29.5t-11.5 64.5q-2 34 -12 62.5t-59 28.5l-54 1v-111q0 -20 7 -25.5t30 -5.5l27 1v-38h-198v38h24q23 -1 30 4.5t7 24.5v245q0 18 -7 23.5t-30 5.5l-24 1v38h238q59 -1 91 -25.5t32 -69.5q0 -38 -16 -55t-45 -29
q-5 -2 -9.5 -4t-9.5 -4l-2 -1q34 -17 43 -38t10 -59q1 -33 5 -43t16 -10q10 0 14 7.5t4 23.5v45v0zM324 362h77q34 -1 52.5 15.5t18.5 45.5t-18.5 43.5t-56.5 14.5l-73 1v-120v0z" />
    <glyph glyph-name="copyright" unicode="&#xa9;" horiz-adv-x="769" 
d="M387 683q142 -1 242.5 -103.5t100.5 -247.5t-100.5 -247t-242.5 -102q-145 0 -246.5 102t-101.5 247q0 146 101.5 248t246.5 102v1zM386 633q-121 -1 -206.5 -88.5t-85.5 -212.5q0 -124 85.5 -212t206.5 -88q119 0 204 88t85 212q0 125 -85 212.5t-204 87.5v1zM500 491
l17 36h39v-156h-40q0 46 -36 78t-79 36h-5.5h-5.5q-64 0 -101.5 -42.5t-37.5 -115.5q0 -66 37 -105.5t98 -39.5q51 0 87.5 30t46.5 81l1 4h47q-8 -79 -58 -121.5t-133 -42.5q-92 0 -149.5 53t-57.5 138q0 91 55.5 149t142.5 58q11 0 23 -0.5t23 -2.5q24 -4 47 -12.5
t39 -25.5v1z" />
    <glyph glyph-name="trademark" unicode="&#x2122;" horiz-adv-x="993" 
d="M45 519h-42v148h384v-148h-42q0 68 -23 87t-89 19v-270q0 -20 6.5 -25.5t30.5 -5.5l34 1v-38h-217v38h34q23 -1 30 4.5t7 24.5v272h-28q-62 -1 -73.5 -31t-11.5 -77v1zM693 394l118 273h165v-38h-26q-24 -1 -31 -6.5t-7 -24.5v-243q0 -20 7 -25.5t31 -5.5l26 1v-38h-201
v38h27q24 -1 30.5 4.5t6.5 24.5v252l-140 -319h-36l-143 319v-251q0 -20 6.5 -25.5t30.5 -5.5l27 1v-38h-177v38h26q24 -1 31 4.5t7 24.5v245q0 18 -7 23.5t-31 5.5l-26 1v38h168l118 -273v0z" />
    <glyph glyph-name="acute" unicode="&#xb4;" horiz-adv-x="500" 
d="M208 517h-46l62 147h88q13 -1 19.5 -5t6.5 -12q0 -2 -0.5 -3.5t-0.5 -2.5q-1 -3 -4 -6.5t-8 -8.5l-117 -109v0z" />
    <glyph glyph-name="dieresis" unicode="&#xa8;" horiz-adv-x="449" 
d="M123 659q24 -1 40.5 -18t16.5 -41q0 -23 -17 -40t-40 -17t-40 17t-17 40q0 24 17 41t40 17v1zM325 659q24 -1 40.5 -18t16.5 -41q0 -23 -17 -40t-40 -17t-40 17t-17 40q0 24 17 41t40 17v1z" />
    <glyph glyph-name="AE" unicode="&#x2260;" 
 />
    <glyph glyph-name="Oslash" unicode="&#xc6;" horiz-adv-x="1111" 
d="M614 606v-235h92q45 -1 64.5 19t19.5 66v41h61v-315h-61v36q0 57 -16.5 75.5t-68.5 18.5l-91 1v-252h201q45 -1 71 6t45 26q29 28 45.5 72t16.5 93v3v4q-1 2 -1 5v6l56 1v-277h-652v57h44q41 -1 53.5 10t12.5 48v172h-219l-97 -159q-2 -4 -4.5 -7.5t-4.5 -7.5
q-5 -8 -9.5 -16t-4.5 -17q0 -12 12.5 -17.5t40.5 -5.5l55 1v-58h-291v58q40 -1 58.5 5t33.5 23q7 9 14.5 21t18.5 28l275 418q8 11 11.5 17.5t4.5 11.5v3v2q0 13 -6.5 17t-26.5 4l-92 1v58h768v-255h-61q0 63 -10.5 100.5t-33.5 61.5q-1 1 -2.5 2t-2.5 2q-17 16 -39.5 21.5
t-69.5 5.5l-210 1v0zM506 347v270l-178 -270h178v0z" />
    <glyph glyph-name="plusminus" unicode="&#xd8;" horiz-adv-x="804" 
d="M640 606l54 54l37 -37l-55 -55q38 -49 58 -107t20 -119q0 -166 -95 -262.5t-258 -96.5q-63 0 -123.5 18t-110.5 58l-55 -55l-36 37l55 55q-42 51 -61.5 108t-19.5 127q0 92 39.5 172.5t106.5 125.5q41 27 91.5 40t114.5 13q66 0 126 -18t112 -59v1zM231 123
q32 -38 76 -58.5t93 -20.5q112 0 172.5 77t60.5 219q0 46 -7.5 84t-23.5 69l-371 -370v0zM573 539q-8 9 -16 17t-16 15q-30 27 -62 38t-76 11q-79 0 -138.5 -46t-79.5 -123q-7 -31 -10.5 -62.5t-3.5 -69.5q0 -46 6 -80t21 -65l1.5 -3l1.5 -3l372 371v0z" />
    <glyph glyph-name="yen" unicode="&#x221e;" 
 />
    <glyph glyph-name="mu" unicode="&#xb1;" horiz-adv-x="567" 
d="M67 143h433v-91h-433v91v0zM67 439h168v163h98v-163h167v-91h-167v-163h-98v163h-168v91v0z" />
    <glyph glyph-name="ordfeminine" unicode="&#x2264;" 
 />
    <glyph glyph-name="ordmasculine" unicode="&#x2265;" 
 />
    <glyph glyph-name="ae" unicode="&#xa5;" horiz-adv-x="567" 
d="M423 413h102v-50h-132l-35 -60h153v-50h-164v-140q0 -38 12.5 -49.5t52.5 -11.5l46 1v-53h-321v53h42q41 -1 53.5 10.5t12.5 48.5v141h-162v50h148l-39 60h-122v50h90l-99 151q-5 6 -9.5 12l-8.5 11q-13 14 -28 19.5t-41 5.5l-1 55h282v-54h-51q-20 -1 -28.5 -5.5
t-8.5 -16.5q0 -4 1.5 -10t4.5 -11l2 -4l2 -4l142 -219l110 192q15 25 20.5 36t5.5 19v0.5v0.5q0 11 -9 16t-27 5l-50 1v54h225v-54q-34 -1 -48.5 -9.5t-24.5 -24.5q-4 -6 -8 -13.5l-9 -16.5l-81 -136v0z" />
    <glyph glyph-name="oslash" unicode="&#xb5;" horiz-adv-x="544" 
d="M60 -170v649h98v-256q0 -77 28.5 -113.5t86.5 -36.5q60 0 84.5 41.5t28.5 90.5q1 6 1 12v12v250h98v-479h-98v72q-21 -44 -48.5 -64t-67.5 -20q-38 0 -64.5 15.5t-48.5 51.5v-225h-98v0z" />
    <glyph glyph-name="questiondown" unicode="&#x2202;" 
 />
    <glyph glyph-name="exclamdown" unicode="&#x3a3;" 
 />
    <glyph glyph-name="florin" unicode="&#x220f;" 
 />
    <glyph glyph-name="guillemotleft" unicode="&#x3c0;" 
 />
    <glyph glyph-name="guillemotright" unicode="&#x222b;" 
 />
    <glyph glyph-name="ellipsis" unicode="&#xaa;" horiz-adv-x="331" 
d="M327 324v-40h-306v40h306v0zM294 494h36v-27q0 -54 -15 -76t-52 -22q-18 0 -33.5 6.5t-18.5 14.5q-4 11 -7.5 17.5l-3.5 6.5l-3 1q-1 -1 -7.5 -8l-17.5 -19q-8 -10 -27 -16t-42 -6q-39 0 -62 20t-23 54q0 48 28.5 64.5t62.5 22.5l11.5 2l11.5 2q27 4 47.5 11.5t20.5 29.5
q0 23 -16 34t-49 11q-8 0 -15.5 -1.5t-14.5 -4.5q-4 -1 -7.5 -2.5t-7.5 -3.5q9 -4 14 -10.5t5 -17.5q0 -16 -11.5 -26t-28.5 -10q-16 0 -27 11.5t-11 28.5q0 33 30.5 52.5t82.5 19.5q63 0 90 -19t27 -63v-133q0 -14 4 -19.5t12 -5.5q11 0 14 10.5t3 42.5v28v0zM198 515
q-5 -3 -11.5 -5l-13.5 -4q-5 -2 -11 -3.5t-12 -3.5q-24 -6 -44 -17.5t-20 -34.5q0 -16 11 -25t30 -9q49 0 60 31.5t11 69.5v1z" />
    <glyph glyph-name="Agrave" unicode="&#xba;" horiz-adv-x="347" 
d="M319 324v-40h-290v40h290v0zM174 654q66 -1 107.5 -41t41.5 -102q0 -66 -40 -105.5t-108 -39.5q-67 0 -109 38.5t-42 101.5q0 68 40.5 107.5t109.5 39.5v1zM173 614q-37 -1 -58 -29t-21 -77q0 -51 21 -76.5t61 -25.5q37 0 57 26t20 73q0 53 -20.5 80.5t-59.5 27.5v1z" />
    <glyph glyph-name="Atilde" unicode="&#x3a9;" 
 />
    <glyph glyph-name="Otilde" unicode="&#xe6;" horiz-adv-x="846" 
d="M802 228h-365q1 -75 36.5 -128t117.5 -53q54 0 91.5 33t52.5 91l63 1q-16 -87 -78.5 -138t-150.5 -51q-63 0 -115 26t-84 80q-34 -52 -82.5 -79t-108.5 -27t-101 36t-41 88q0 82 49.5 110t109.5 38q9 2 18 3.5t19 2.5q48 8 84.5 21t36.5 53q0 44 -29 66t-88 22
q-26 0 -44.5 -4.5t-35.5 -15.5q-2 -1 -4.5 -2.5t-4.5 -3.5q17 -8 26.5 -20.5t9.5 -28.5q0 -25 -17 -41.5t-43 -16.5q-27 0 -44.5 18.5t-17.5 47.5q0 55 52.5 90t132.5 35q56 0 99 -15t68 -44q34 31 71.5 45t84.5 14q110 0 171.5 -62t61.5 -172v-8t-1 -12v1zM350 246
q-18 -10 -31 -16t-25 -10q-7 -2 -13 -3.5t-13 -3.5q-3 -1 -6 -1.5t-6 -1.5q-67 -15 -90.5 -34t-23.5 -59q0 -28 22.5 -46t59.5 -18q58 0 92 36.5t34 97.5v59v0zM695 285q-1 65 -34.5 101.5t-93.5 36.5q-54 0 -87 -35.5t-41 -103.5l256 1v0z" />
    <glyph glyph-name="OE" unicode="&#xf8;" horiz-adv-x="597" 
d="M457 433l54 56l39 -38l-54 -55q2 -4 4.5 -7t4.5 -6q23 -34 34 -68.5t11 -75.5q0 -118 -67.5 -187t-183.5 -69q-46 0 -87.5 12t-72.5 35l-59 -58l-39 37l59 60q-20 25 -33 57.5t-18 66.5q-2 10 -2.5 19.5t-0.5 18.5q0 114 68.5 182.5t182.5 68.5q41 0 72.5 -7.5
t61.5 -25.5q7 -4 13 -8l13 -9v1zM194 88q4 -5 8 -9t8 -7q20 -17 41 -24t48 -7q68 0 104.5 47t36.5 133q0 22 -1.5 40t-5.5 35q-1 7 -3 13.5l-4 13.5l-232 -235v0zM401 375q-17 23 -43.5 35.5t-60.5 12.5q-66 0 -103.5 -51t-37.5 -143q0 -25 3 -47.5t8 -44.5l234 238v0z" />
    <glyph glyph-name="oe" unicode="&#xbf;" horiz-adv-x="557" 
d="M243 302h54q-1 -68 -24.5 -107.5t-51.5 -69.5l-11.5 -12l-11.5 -12q-22 -23 -37.5 -48.5t-15.5 -61.5q0 -50 41 -82.5t103 -32.5q56 0 92 27.5t43 76.5q-11 -6 -19 -8.5t-16 -3.5h-2.5h-2.5q-26 0 -43.5 17t-17.5 45q0 30 21 50.5t52 20.5q37 0 62.5 -30.5t25.5 -73.5
q0 -83 -59.5 -133.5t-156.5 -50.5q-106 0 -170 48.5t-64 131.5q0 66 33 100.5t72 62.5q36 26 67 57.5t37 87.5v1zM271 484q28 -1 47 -20.5t19 -47.5q0 -27 -19 -46.5t-47 -19.5q-27 0 -46.5 19.5t-19.5 46.5q0 28 19.5 47.5t46.5 19.5v1z" />
    <glyph glyph-name="endash" unicode="&#xa1;" horiz-adv-x="267" 
d="M112 305h44l40 -388q2 -23 2.5 -29.5t0.5 -9.5v0v0q0 -28 -18.5 -46.5t-46.5 -18.5q-30 0 -48.5 18.5t-18.5 48.5q0 5 1 16.5t2 25.5l42 383v0zM134 484q28 -1 47 -20.5t19 -47.5q0 -27 -19 -46.5t-47 -19.5q-27 0 -46.5 19.5t-19.5 46.5q0 28 19.5 47.5t46.5 19.5v1z
" />
    <glyph glyph-name="emdash" unicode="&#xac;" 
 />
    <glyph glyph-name="quotedblleft" unicode="&#x221a;" 
 />
    <glyph glyph-name="quotedblright" unicode="&#x192;" horiz-adv-x="567" 
d="M221 374h-94l9 50h94l28 158q13 70 59.5 110.5t116.5 40.5q45 0 71.5 -20.5t26.5 -55.5q0 -28 -20 -49.5t-47 -21.5q-19 0 -31.5 11t-12.5 30q0 20 12 35t31 19q-7 4 -12.5 6t-10.5 3q-3 1 -6 1h-6q-28 0 -43.5 -16.5t-22.5 -53.5l-35 -197h114l-9 -50h-114l-62 -355
q-13 -72 -59 -112t-117 -40q-45 0 -71 20.5t-26 55.5q0 28 19.5 49t46.5 21q20 0 32 -11t12 -29q0 -20 -12.5 -35.5t-31.5 -18.5q8 -5 14 -7t11 -3q3 -1 5.5 -1h5.5q28 0 43.5 17t22.5 54l69 395v0z" />
    <glyph glyph-name="quoteleft" unicode="&#x2248;" 
 />
    <glyph glyph-name="quoteright" unicode="&#x2206;" 
 />
    <glyph glyph-name="ydieresis" unicode="&#xab;" horiz-adv-x="435" 
d="M133 439h59q-25 -60 -38.5 -102t-13.5 -64q0 -17 4.5 -36.5t11.5 -39.5l8 -22l8 -21l10 -23t9 -21l-58 1q-37 54 -61.5 101t-24.5 61q0 15 9.5 36.5t23.5 44.5q3 6 6.5 12t7.5 12q11 18 21.5 33.5l17.5 26.5v1zM329 439h59q-25 -59 -38.5 -101.5t-13.5 -64.5
q0 -17 4.5 -36.5t11.5 -39.5l8 -22l8 -21l10 -23t9 -21l-58 1q-37 55 -61.5 101.5t-24.5 60.5q0 15 9.5 36t22.5 44q4 6 7.5 12.5t7.5 12.5q11 18 21.5 33.5l17.5 26.5v1z" />
    <glyph glyph-name="Ydieresis" unicode="&#xbb;" horiz-adv-x="435" 
d="M106 111h-59q26 57 39.5 100t13.5 64q0 17 -4.5 36t-11.5 39q-4 9 -7.5 18.5t-6.5 18.5l-11.5 27t-9.5 24l57 1q37 -56 61.5 -103t24.5 -61q0 -16 -9.5 -37t-22.5 -43l-8 -14t-8 -13l-21 -32l-17 -26v1zM302 111h-59q26 57 39.5 99.5t13.5 64.5q0 17 -5 36.5t-12 39.5
q-3 9 -6.5 18l-6.5 17l-11.5 27.5t-9.5 24.5l57 1q37 -56 61.5 -103t24.5 -61q0 -15 -9 -36t-22 -44l-8.5 -14.5t-9.5 -14.5q-10 -17 -20 -31t-17 -25v1z" />
    <glyph glyph-name="fraction" unicode="&#x2026;" horiz-adv-x="800" 
d="M133 114q28 -1 47 -20t19 -47t-19.5 -46.5t-46.5 -18.5q-28 0 -47 19t-19 46q0 28 19 47t47 19v1zM400 114q27 -1 46.5 -20t19.5 -47t-19.5 -46.5t-46.5 -18.5q-28 0 -47 19t-19 46q0 28 19 47t47 19v1zM667 114q27 -1 46.5 -20t19.5 -47t-19.5 -46.5t-46.5 -18.5
q-28 0 -47 19t-19 46q0 28 19 47t47 19v1z" />
    <glyph glyph-name="currency" unicode="&#xc0;" horiz-adv-x="757" 
d="M497 222h-282l-8 -20t-9 -20q-3 -9 -6.5 -17t-6.5 -17q-6 -15 -9.5 -29.5t-3.5 -27.5q0 -19 12 -27t43 -8l53 1v-57h-296v57q50 -1 71 6.5t37 36.5l10.5 22t11.5 27l207 518h105l227 -531q4 -8 7 -15.5t7 -13.5q11 -22 25 -36.5t46 -14.5l36 1v-57h-325v57h57
q27 -1 37.5 4t10.5 18q0 5 -2 11.5t-8 19.5l-47 112v0zM472 283l-123 286l-111 -286h234v0zM420 717l-116 110q-5 4 -8 7t-4 6q0 2 -0.5 3.5t-0.5 3.5q0 8 6.5 12t19.5 4l87 1l63 -147h-47v0z" />
    <glyph glyph-name="guilsinglleft" unicode="&#xc3;" horiz-adv-x="757" 
d="M497 222h-282l-8 -20t-9 -20q-3 -9 -6.5 -17t-6.5 -17q-6 -15 -9.5 -29.5t-3.5 -27.5q0 -19 12 -27t43 -8l53 1v-57h-296v57q50 -1 71 6.5t37 36.5l10.5 22t11.5 27l207 518h105l227 -531q4 -8 7 -15.5t7 -13.5q11 -22 25 -36.5t46 -14.5l36 1v-57h-325v57h57
q27 -1 37.5 4t10.5 18q0 5 -2 11.5t-8 19.5l-47 112v0zM472 283l-123 286l-111 -286h234v0zM506 851h51q0 -53 -27 -87t-68 -34q-22 0 -44 6t-44 13q-11 4 -22 7l-22 6q-10 3 -21 4.5t-22 1.5q-17 0 -24 -10t-8 -35l-54 1q1 55 25.5 87t67.5 32q23 0 44.5 -5.5l43.5 -11.5
q22 -7 44 -12.5t44 -5.5q17 0 26 10.5t10 31.5v1z" />
    <glyph glyph-name="guilsinglright" unicode="&#xd5;" horiz-adv-x="803" 
d="M398 683q62 -1 115 -14.5t93 -39.5q68 -43 107.5 -120.5t39.5 -164.5q0 -168 -94 -264.5t-264 -96.5q-154 0 -249.5 95t-95.5 248q0 159 94 257.5t254 98.5v1zM401 621q-107 -1 -168.5 -78t-61.5 -212q0 -76 14 -125t46 -87q31 -36 75 -55.5t93 -19.5q113 0 173.5 77.5
t60.5 221.5q0 125 -64 201t-168 76v1zM529 850h51q0 -53 -27 -87t-68 -34q-22 0 -44 6t-44 13q-11 4 -22 7l-22 6q-10 3 -21 4.5t-22 1.5q-17 0 -24 -10t-8 -35l-54 1q1 55 25.5 87t67.5 32q23 0 44.5 -5.5l43.5 -11.5q22 -7 44 -12.5t44 -5.5q17 0 26 10.5t10 31.5v1z" />
    <glyph glyph-name="fi" unicode="&#x152;" horiz-adv-x="1143" 
d="M641 606v-234h97q46 -1 63.5 24t17.5 90v16h61v-320h-61v15q0 55 -10.5 85.5t-72.5 30.5l-95 1v-255l207 3q113 1 140.5 60.5t31.5 156.5l60 1v-280h-504q-20 -1 -39.5 -3.5t-38.5 -4.5q-5 0 -9 -0.5t-8 -1.5q-24 -3 -48 -5t-48 -2q-155 0 -245 90.5t-90 247.5
q0 160 94 259t246 99q24 0 48.5 -2t48.5 -5t48.5 -5t48.5 -2l486 1v-246h-59q0 82 -28.5 133.5t-126.5 51.5l-215 1v0zM533 175v349q0 49 -32 71t-101 22q-106 0 -167.5 -78.5t-61.5 -213.5q0 -127 60 -204t160 -77q41 0 70.5 9t48.5 26l4 4t3 4q10 12 13 29t3 58v1z" />
    <glyph glyph-name="fl" unicode="&#x153;" horiz-adv-x="934" 
d="M890 230h-365q0 -68 36 -124.5t111 -56.5q60 0 97 31t53 92l65 1q-21 -90 -78.5 -140t-152.5 -50q-55 0 -100.5 21t-74.5 61q-38 -43 -84 -62.5t-104 -19.5q-109 0 -178 67t-69 173q0 119 66.5 189t178.5 70q54 0 105 -17.5t86 -60.5q28 38 73 57.5t102 19.5
q110 0 172 -59.5t62 -165.5v-1.5v-0.5v-10.5t-1 -14.5v1zM292 426q-63 -1 -102 -56t-39 -145q0 -85 38 -134.5t104 -49.5q69 0 106.5 51.5t37.5 145.5q0 72 -30.5 129.5t-114.5 57.5v1zM784 286q0 56 -31 98t-94 42q-54 0 -89.5 -38t-41.5 -103l256 1v0z" />
    <glyph glyph-name="daggerdbl" horiz-adv-x="567" 
d="M71 319h426v-90h-426v90v0z" />
    <glyph glyph-name="periodcentered" unicode="&#x2014;" horiz-adv-x="721" 
d="M10 319h701v-90h-701v90v0z" />
    <glyph glyph-name="quotedblbase" unicode="&#x201c;" horiz-adv-x="482" 
d="M194 690v-44q-37 -8 -59.5 -32t-24.5 -60q3 3 6 5t5 3q6 4 13 5.5t16 1.5q24 0 40 -16.5t16 -42.5q0 -30 -19 -49t-49 -19q-35 0 -57 28.5t-22 74.5q0 63 40.5 96.5t94.5 47.5v1zM410 690v-44q-37 -8 -59 -32t-24 -60q3 3 6 5t5 3q6 4 13 5.5t16 1.5q24 0 40 -16.5
t16 -42.5q0 -30 -19 -49t-49 -19q-36 0 -57.5 28.5t-21.5 74.5q0 62 40 96t94 48v1z" />
    <glyph glyph-name="perthousand" unicode="&#x201d;" horiz-adv-x="483" 
d="M72 437v44q37 5 59.5 29.5t23.5 60.5q-3 -3 -6 -5t-5 -4q-6 -3 -13 -4.5t-16 -1.5q-24 0 -40 16.5t-16 41.5q0 31 19 50t50 19q35 0 57 -28.5t22 -74.5q0 -63 -40 -96t-95 -48v1zM288 437v44q38 5 60 29.5t24 60.5q-3 -3 -6 -5t-5 -4q-6 -3 -13 -4.5t-16 -1.5
q-24 0 -40 16.5t-16 41.5q0 31 19 50t49 19q36 0 58 -28.5t22 -74.5q0 -35 -18.5 -67t-49.5 -52q-3 -2 -5 -3t-5 -3q-4 -2 -8.5 -4t-10.5 -4q-7 -2 -16.5 -5t-22.5 -6v1z" />
    <glyph glyph-name="Acircumflex" unicode="&#x2018;" horiz-adv-x="266" 
d="M194 690v-44q-37 -8 -59.5 -32t-24.5 -60q3 3 6 5t5 3q6 4 13 5.5t16 1.5q24 0 40 -16.5t16 -42.5q0 -30 -19 -49t-49 -19q-35 0 -57 28.5t-22 74.5q0 63 40.5 96.5t94.5 47.5v1z" />
    <glyph glyph-name="Ecircumflex" unicode="&#x2019;" horiz-adv-x="267" 
d="M73 437v44q37 5 59.5 29.5t23.5 60.5q-3 -3 -6 -5t-5 -4q-6 -3 -13 -4.5t-16 -1.5q-24 0 -40 16.5t-16 41.5q0 31 19 50t50 19q35 0 57 -28.5t22 -74.5q0 -63 -40 -96t-95 -48v1z" />
    <glyph glyph-name="Aacute" unicode="&#xf7;" 
 />
    <glyph glyph-name="Edieresis" unicode="&#x25ca;" 
 />
    <glyph glyph-name="Egrave" unicode="&#xff;" horiz-adv-x="548" 
d="M300 97l108 260q4 10 6 16t2 12v0.5v1.5q0 14 -7.5 19.5t-26.5 5.5l-46 1v54h226v-55h-25q-13 -1 -21 -3t-15 -11q-6 -7 -12.5 -20.5t-15.5 -35.5l-163 -374l-4 -10t-5 -9q-29 -67 -68 -110t-123 -43q-56 0 -89 29t-33 79q0 37 20 60t53 23q28 0 45.5 -17.5t17.5 -44.5
q0 -29 -16.5 -43.5t-48.5 -14.5l3.5 -3.5l3.5 -3.5q10 -9 21 -12t27 -3q44 0 74 29t58 99l-163 384q-1 0 -1.5 1.5t-0.5 2.5q-16 35 -35.5 42.5t-55.5 7.5l-1 56h271v-54h-43q-21 -1 -30 -5.5t-9 -14.5q0 -4 2 -12t6 -17q1 -2 1.5 -4t1.5 -4l111 -259v0zM193 659
q24 -1 40.5 -18t16.5 -41q0 -23 -17 -40t-40 -17t-40 17t-17 40q0 24 17 41t40 17v1zM395 659q24 -1 40.5 -18t16.5 -41q0 -23 -17 -40t-40 -17t-40 17t-17 40q0 24 17 41t40 17v1z" />
    <glyph glyph-name="Iacute" unicode="&#x178;" horiz-adv-x="696" 
d="M385 343l123 189q18 26 23.5 37.5t5.5 18.5q0 11 -8.5 16.5t-27.5 5.5l-62 1v56h267v-57h-30q-28 -1 -43 -18.5t-28 -38.5q-2 -2 -3 -3.5t-2 -3.5l-183 -277v-153q0 -38 12.5 -49t52.5 -11l55 1v-57h-347v57h52q41 -1 54 10t13 48v148l-214 298q-9 12 -17 20.5t-15 13.5
q-13 11 -29 12.5t-43 1.5l-1 58h328v-57h-64q-20 -1 -28.5 -5.5t-8.5 -16.5v-3.5t1 -3.5q1 -4 4 -8.5l9 -13.5l154 -216v0zM267 852q24 -1 40.5 -18t16.5 -41q0 -23 -17 -40t-40 -17t-40 17t-17 40q0 24 17 41t40 17v1zM469 852q24 -1 40.5 -18t16.5 -41q0 -23 -17 -40
t-40 -17t-40 17t-17 40q0 24 17 41t40 17v1z" />
    <glyph glyph-name="Icircumflex" unicode="&#x2215;" horiz-adv-x="87" 
d="M214 667h59l-405 -667h-55l401 667v0z" />
    <glyph glyph-name="Idieresis" unicode="&#xa4;" horiz-adv-x="667" 
d="M40 129l98 98q-24 32 -36 67t-12 72q0 23 3.5 43t11.5 40q6 14 14 28t18 29l-99 100l54 54l99 -99q17 11 32.5 19t30.5 14q19 7 39 10.5t43 3.5t43 -3.5t41 -12.5q13 -5 26.5 -13t27.5 -18l99 99l54 -54l-98 -98q13 -20 22 -37.5t15 -33.5q6 -17 8.5 -34.5t2.5 -36.5
q0 -20 -3 -38t-9 -35q-6 -16 -14.5 -32.5t-20.5 -33.5l99 -98l-54 -54l-99 99q-34 -26 -68.5 -38t-73.5 -12q-17 0 -33 2.5t-32 7.5q-19 5 -38 14.5t-39 23.5l-99 -97l-53 54v0zM334 522q-64 -1 -109 -46.5t-45 -109.5t45 -109t109 -45q63 0 108 45t45 109t-44.5 109.5
t-108.5 45.5v1z" />
    <glyph glyph-name="Igrave" unicode="&#x2039;" horiz-adv-x="239" 
d="M133 439h59q-25 -60 -38.5 -102t-13.5 -64q0 -17 4.5 -36.5t11.5 -39.5l8 -22l8 -21l10 -23t9 -21l-58 1q-37 54 -61.5 101t-24.5 61q0 15 9.5 36.5t23.5 44.5q3 6 6.5 12t7.5 12q11 18 21.5 33.5l17.5 26.5v1z" />
    <glyph glyph-name="Oacute" unicode="&#x203a;" horiz-adv-x="239" 
d="M106 111h-59q26 57 39.5 100t13.5 64q0 17 -4.5 36t-11.5 39q-4 9 -7.5 18.5t-6.5 18.5l-11.5 27t-9.5 24l57 1q37 -56 61.5 -103t24.5 -61q0 -16 -9.5 -37t-22.5 -43l-8 -14t-8 -13l-21 -32l-17 -26v1z" />
    <glyph glyph-name="Ocircumflex" unicode="&#xf001;" horiz-adv-x="657" 
d="M20 467h95v42q0 77 58 122t160 45q100 0 158 -26t58 -70q0 -25 -17 -41.5t-43 -16.5t-42.5 15.5t-16.5 40.5v5.5t1 4.5q1 5 3 10.5t5 12.5q-22 11 -50.5 17t-59.5 6q-85 0 -100.5 -48t-15.5 -120l325 1v-351q0 -42 9.5 -53t46.5 -11l37 1v-53h-276v53h28q38 -1 47.5 10
t9.5 52v234q0 40 -9.5 50.5t-47.5 10.5l-170 1v-295q0 -42 9.5 -53t46.5 -11l43 1v-53h-290v53h36q38 -1 47.5 10t9.5 52v296h-95v56v0z" />
    <glyph glyph-name="Ograve" unicode="&#xf002;" horiz-adv-x="657" 
d="M115 467v39q0 42 11.5 69t39.5 49q31 26 71.5 39t87.5 13q20 0 36.5 -2t32.5 -6q12 -3 23.5 -7t24.5 -9l96 15v-551q0 -42 9.5 -53t46.5 -11l37 1v-53h-270v53h22q38 -1 47.5 10t9.5 52v296h-227v-295q0 -42 9.5 -53t46.5 -11l43 1v-53h-290v53h36q38 -1 47.5 10t9.5 52
v296h-95v56h95v0zM213 467h227q0 65 -15.5 116t-98.5 51t-98 -50t-15 -118v1z" />
    <glyph glyph-name="Uacute" unicode="&#x2021;" horiz-adv-x="567" 
d="M261 410q-10 -3 -22 -8l-25 -10q-1 0 -2.5 -1t-2.5 -1l-35.5 -14.5t-23.5 -6.5q-28 0 -46.5 18.5t-18.5 47.5t17 47.5t45 18.5q14 0 27.5 -6t25.5 -12q1 -1 2 -1.5t2 -1.5q5 -2 9 -4l8 -4l12.5 -4t15.5 -4q3 0 6 -0.5t6 -1.5q0 23 -6 43.5t-13 39.5q-2 4 -3 7l-2 6
q-6 16 -10.5 32.5t-4.5 34.5q0 27 16.5 42t45.5 15t45 -15t16 -42q0 -18 -4 -33.5t-10 -30.5q-1 -4 -2.5 -7.5t-2.5 -6.5q-7 -19 -13 -39.5t-6 -45.5q7 1 14 3.5t14 4.5q6 3 12.5 5.5t13.5 5.5l33 13.5t27 6.5q28 0 45 -18.5t17 -47.5t-18 -47.5t-47 -18.5q-7 0 -23.5 6.5
l-35.5 14.5q-1 0 -2 0.5t-2 1.5l-25.5 10t-22.5 7q0 -3 -0.5 -5.5t-0.5 -5.5v-5.5v-5.5q0 -26 8.5 -54t27.5 -63q3 -5 4.5 -9t1.5 -7q0 -7 -6.5 -20.5l-14.5 -31.5t-14.5 -39t-6.5 -43v-10.5t1 -11.5q10 3 23 8t26 11q19 8 36 14.5t26 6.5q29 0 47 -18.5t18 -47.5t-17 -47.5
t-45 -18.5q-14 0 -28.5 5t-28.5 12l-4 2l-4 2q-13 6 -25 11t-24 8q0 -25 6 -45.5t13 -39.5q2 -4 3.5 -9t3.5 -10q5 -14 8.5 -28t3.5 -30q0 -28 -16 -43t-45 -15t-45.5 15t-16.5 43q0 18 4.5 34t9.5 32q2 3 3 6.5t3 6.5q7 20 13 39.5t6 43.5q-8 -2 -16 -4.5l-17 -5.5
q-5 -2 -10 -4.5t-10 -4.5l-35 -14.5t-26 -6.5q-28 0 -45 18.5t-17 47.5t18.5 47.5t46.5 18.5q11 0 27.5 -6.5t34.5 -14.5q1 -1 2 -1.5t2 -0.5l23.5 -9.5t21.5 -7.5v6t1 5v5.5v5.5q0 23 -6.5 44t-14.5 38l-14.5 31.5t-6.5 20.5q0 5 6.5 19t14.5 33q5 11 10 24.5t8 27.5
l2 14.5t1 14.5v5.5v5.5q-1 3 -1 5.5v5.5v1z" />
    <glyph glyph-name="Ucircumflex" unicode="&#x2219;" horiz-adv-x="567" 
d="M283 308q28 -1 47 -20t19 -47t-19.5 -47t-46.5 -19q-28 0 -47 19.5t-19 46.5q0 28 19 47t47 19v1z" />
    <glyph glyph-name="Ugrave" unicode="&#x201a;" 
 />
    <glyph glyph-name="dotlessi" unicode="&#x201e;" horiz-adv-x="483" 
d="M72 -135v44q37 6 59.5 30.5t23.5 60.5q-3 -3 -6 -5t-5 -4q-6 -3 -13 -4.5t-16 -1.5q-24 0 -40 16t-16 41q0 30 19 49.5t50 19.5q35 0 57 -28.5t22 -75.5q0 -62 -40.5 -95t-94.5 -47v0zM288 -135v44q38 6 60 30.5t24 60.5q-3 -3 -6 -5t-5 -4q-6 -3 -13 -4.5t-16 -1.5
q-24 0 -40 16t-16 41q0 30 19 49.5t49 19.5q36 0 58 -28.5t22 -75.5q0 -34 -18.5 -66t-49.5 -51q-3 -2 -5 -3t-5 -3q-4 -2 -8.5 -4t-10.5 -4q-7 -2 -16.5 -5t-22.5 -6v0z" />
    <glyph glyph-name="circumflex" unicode="&#x2030;" horiz-adv-x="1059" 
d="M549 335q56 -1 89 -46.5t33 -125.5q0 -9 -0.5 -17.5t-1.5 -17.5q-5 -52 -32 -95t-88 -43q-58 0 -90.5 44.5t-32.5 126.5t32.5 127.5t90.5 45.5v1zM549 295q-31 -1 -44 -28.5t-13 -90.5q0 -81 13 -114.5t44 -33.5q32 0 45.5 30.5t13.5 97.5q0 74 -13.5 106t-45.5 32v1z
M890 335q57 -1 90 -47.5t33 -127.5q0 -82 -32 -126t-91 -44q-58 0 -90.5 45t-32.5 127q0 81 32.5 126.5t90.5 45.5v1zM890 295q-31 -1 -44.5 -28.5t-13.5 -90.5q0 -81 13.5 -114.5t44.5 -33.5t45 30.5t14 97.5q0 74 -13.5 106t-45.5 32v1zM541 661h60l-403 -661h-55l398 661
v0zM169 677q56 -1 89 -47t33 -126q0 -9 -0.5 -17.5t-1.5 -17.5q-6 -52 -33 -95.5t-87 -43.5q-58 0 -90.5 45.5t-32.5 127.5q0 81 32.5 127t90.5 46v1zM169 636q-31 -1 -44 -28t-13 -91q0 -81 13 -114t44 -33t44.5 30t13.5 98q0 74 -13 105.5t-45 31.5v1z" />
    <glyph glyph-name="tilde" unicode="&#xc2;" horiz-adv-x="757" 
d="M497 222h-282l-8 -20t-9 -20q-3 -9 -6.5 -17t-6.5 -17q-6 -15 -9.5 -29.5t-3.5 -27.5q0 -19 12 -27t43 -8l53 1v-57h-296v57q50 -1 71 6.5t37 36.5l10.5 22t11.5 27l207 518h105l227 -531q4 -8 7 -15.5t7 -13.5q11 -22 25 -36.5t46 -14.5l36 1v-57h-325v57h57
q27 -1 37.5 4t10.5 18q0 5 -2 11.5t-8 19.5l-47 112v0zM472 283l-123 286l-111 -286h234v0zM372 807l-81 -84h-65l109 145h96l101 -145h-88l-72 84v0z" />
    <glyph glyph-name="macron" unicode="&#xca;" horiz-adv-x="753" 
d="M251 606v-231h97q41 -1 61.5 19.5t20.5 62.5v45h58v-315h-58v35q0 50 -19 72.5t-61 22.5l-99 1v-257h189q133 -1 160.5 52t27.5 171l61 1v-285h-656v57h44q41 -1 53.5 10t12.5 48v436q0 36 -12.5 47t-53.5 11l-44 1v57h645v-249h-59q0 70 -24.5 128.5t-110.5 58.5l-233 1
v0zM369 807l-81 -84h-65l109 145h96l101 -145h-88l-72 84v0z" />
    <glyph glyph-name="breve" unicode="&#xc1;" horiz-adv-x="757" 
d="M497 222h-282l-8 -20t-9 -20q-3 -9 -6.5 -17t-6.5 -17q-6 -15 -9.5 -29.5t-3.5 -27.5q0 -19 12 -27t43 -8l53 1v-57h-296v57q50 -1 71 6.5t37 36.5l10.5 22t11.5 27l207 518h105l227 -531q4 -8 7 -15.5t7 -13.5q11 -22 25 -36.5t46 -14.5l36 1v-57h-325v57h57
q27 -1 37.5 4t10.5 18q0 5 -2 11.5t-8 19.5l-47 112v0zM472 283l-123 286l-111 -286h234v0zM337 717h-46l62 147h88q13 -1 19.5 -5t6.5 -12q0 -2 -0.5 -3.5t-0.5 -2.5q-1 -3 -4 -6.5t-8 -8.5l-117 -109v0z" />
    <glyph glyph-name="dotaccent" unicode="&#xcb;" horiz-adv-x="753" 
d="M251 606v-231h97q41 -1 61.5 19.5t20.5 62.5v45h58v-315h-58v35q0 50 -19 72.5t-61 22.5l-99 1v-257h189q133 -1 160.5 52t27.5 171l61 1v-285h-656v57h44q41 -1 53.5 10t12.5 48v436q0 36 -12.5 47t-53.5 11l-44 1v57h645v-249h-59q0 70 -24.5 128.5t-110.5 58.5l-233 1
v0zM275 852q24 -1 40.5 -18t16.5 -41q0 -23 -17 -40t-40 -17t-40 17t-17 40q0 24 17 41t40 17v1zM477 852q24 -1 40.5 -18t16.5 -41q0 -23 -17 -40t-40 -17t-40 17t-17 40q0 24 17 41t40 17v1z" />
    <glyph glyph-name="ring" unicode="&#xc8;" horiz-adv-x="753" 
d="M251 606v-231h97q41 -1 61.5 19.5t20.5 62.5v45h58v-315h-58v35q0 50 -19 72.5t-61 22.5l-99 1v-257h189q133 -1 160.5 52t27.5 171l61 1v-285h-656v57h44q41 -1 53.5 10t12.5 48v436q0 36 -12.5 47t-53.5 11l-44 1v57h645v-249h-59q0 70 -24.5 128.5t-110.5 58.5l-233 1
v0zM417 717l-116 110q-5 4 -8 7t-4 6q0 2 -0.5 3.5t-0.5 3.5q0 8 6.5 12t19.5 4l87 1l63 -147h-47v0z" />
    <glyph glyph-name="cedilla" unicode="&#xcd;" horiz-adv-x="395" 
d="M34 610v57h328v-57h-44q-40 -1 -53 -12t-13 -48v-434q0 -38 13 -49t53 -11l44 1v-57h-328v57h44q41 -1 53.5 10t12.5 48v436q0 36 -12.5 47t-53.5 11l-44 1v0zM156 717h-46l62 147h88q13 -1 19.5 -5t6.5 -12q0 -2 -0.5 -3.5t-0.5 -2.5q-1 -3 -4 -6.5t-8 -8.5l-117 -109v0
z" />
    <glyph glyph-name="hungarumlaut" unicode="&#xce;" horiz-adv-x="395" 
d="M34 610v57h328v-57h-44q-40 -1 -53 -12t-13 -48v-434q0 -38 13 -49t53 -11l44 1v-57h-328v57h44q41 -1 53.5 10t12.5 48v436q0 36 -12.5 47t-53.5 11l-44 1v0zM191 807l-81 -84h-65l109 145h96l101 -145h-88l-72 84v0z" />
    <glyph glyph-name="ogonek" unicode="&#xcf;" horiz-adv-x="395" 
d="M34 610v57h328v-57h-44q-40 -1 -53 -12t-13 -48v-434q0 -38 13 -49t53 -11l44 1v-57h-328v57h44q41 -1 53.5 10t12.5 48v436q0 36 -12.5 47t-53.5 11l-44 1v0zM97 852q24 -1 40.5 -18t16.5 -41q0 -23 -17 -40t-40 -17t-40 17t-17 40q0 24 17 41t40 17v1zM299 852
q24 -1 40.5 -18t16.5 -41q0 -23 -17 -40t-40 -17t-40 17t-17 40q0 24 17 41t40 17v1z" />
    <glyph glyph-name="caron" unicode="&#xcc;" horiz-adv-x="395" 
d="M34 610v57h328v-57h-44q-40 -1 -53 -12t-13 -48v-434q0 -38 13 -49t53 -11l44 1v-57h-328v57h44q41 -1 53.5 10t12.5 48v436q0 36 -12.5 47t-53.5 11l-44 1v0zM239 717l-116 110q-5 4 -8 7t-4 6q0 2 -0.5 3.5t-0.5 3.5q0 8 6.5 12t19.5 4l87 1l63 -147h-47v0z" />
    <glyph glyph-name="Lslash" unicode="&#xd3;" horiz-adv-x="803" 
d="M398 683q62 -1 115 -14.5t93 -39.5q68 -43 107.5 -120.5t39.5 -164.5q0 -168 -94 -264.5t-264 -96.5q-154 0 -249.5 95t-95.5 248q0 159 94 257.5t254 98.5v1zM401 621q-107 -1 -168.5 -78t-61.5 -212q0 -76 14 -125t46 -87q31 -36 75 -55.5t93 -19.5q113 0 173.5 77.5
t60.5 221.5q0 125 -64 201t-168 76v1zM360 716h-46l62 147h88q13 -1 19.5 -5t6.5 -12q0 -2 -0.5 -3.5t-0.5 -2.5q-1 -3 -4 -6.5t-8 -8.5l-117 -109v0z" />
    <glyph glyph-name="lslash" unicode="&#xd4;" horiz-adv-x="803" 
d="M398 683q62 -1 115 -14.5t93 -39.5q68 -43 107.5 -120.5t39.5 -164.5q0 -168 -94 -264.5t-264 -96.5q-154 0 -249.5 95t-95.5 248q0 159 94 257.5t254 98.5v1zM401 621q-107 -1 -168.5 -78t-61.5 -212q0 -76 14 -125t46 -87q31 -36 75 -55.5t93 -19.5q113 0 173.5 77.5
t60.5 221.5q0 125 -64 201t-168 76v1zM395 807l-81 -84h-65l109 145h96l101 -145h-88l-72 84v0z" />
    <glyph glyph-name="Scaron" unicode="&#xf000;" 
 />
    <glyph glyph-name="scaron" unicode="&#xd2;" 
 />
    <glyph glyph-name="Eth" unicode="&#xda;" horiz-adv-x="776" 
d="M16 611v56h320v-56h-38q-40 -1 -53 -12.5t-13 -48.5v-340q0 -79 48 -115.5t122 -36.5q101 0 142.5 49.5t41.5 144.5v299q0 36 -12.5 47.5t-53.5 11.5l-44 1v56h283v-56h-38q-41 -1 -53.5 -12.5t-12.5 -48.5v-340q0 -124 -78 -175.5t-190 -51.5q-118 0 -192.5 52.5
t-74.5 179.5v336q0 36 -12.5 47.5t-53.5 11.5l-38 1v0zM347 716h-46l62 147h88q13 -1 19.5 -5t6.5 -12q0 -2 -0.5 -3.5t-0.5 -2.5q-1 -3 -4 -6.5t-8 -8.5l-117 -109v0z" />
    <glyph glyph-name="eth" unicode="&#xdb;" horiz-adv-x="776" 
d="M16 611v56h320v-56h-38q-40 -1 -53 -12.5t-13 -48.5v-340q0 -79 48 -115.5t122 -36.5q101 0 142.5 49.5t41.5 144.5v299q0 36 -12.5 47.5t-53.5 11.5l-44 1v56h283v-56h-38q-41 -1 -53.5 -12.5t-12.5 -48.5v-340q0 -124 -78 -175.5t-190 -51.5q-118 0 -192.5 52.5
t-74.5 179.5v336q0 36 -12.5 47.5t-53.5 11.5l-38 1v0zM382 807l-81 -84h-65l109 145h96l101 -145h-88l-72 84v0z" />
    <glyph glyph-name="Thorn" unicode="&#xd9;" horiz-adv-x="776" 
d="M16 611v56h320v-56h-38q-40 -1 -53 -12.5t-13 -48.5v-340q0 -79 48 -115.5t122 -36.5q101 0 142.5 49.5t41.5 144.5v299q0 36 -12.5 47.5t-53.5 11.5l-44 1v56h283v-56h-38q-41 -1 -53.5 -12.5t-12.5 -48.5v-340q0 -124 -78 -175.5t-190 -51.5q-118 0 -192.5 52.5
t-74.5 179.5v336q0 36 -12.5 47.5t-53.5 11.5l-38 1v0zM430 716l-116 110q-5 4 -8 7t-4 6q0 2 -0.5 3.5t-0.5 3.5q0 8 6.5 12t19.5 4l87 1l63 -147h-47v0z" />
    <glyph glyph-name="thorn" unicode="&#x131;" horiz-adv-x="346" 
d="M227 467v-351q0 -42 9.5 -53t46.5 -11l36 1v-53h-289v53h42q38 -1 47.5 10t9.5 52v236q0 40 -9.5 50.5t-47.5 10.5l-42 1v54h197v0z" />
    <glyph glyph-name="onehalf" unicode="&#x2dc;" horiz-adv-x="500" 
d="M243 607l-81 -84h-65l109 145h96l101 -145h-88l-72 84v0z" />
    <glyph glyph-name="arrowright" unicode="&#x2c6;" horiz-adv-x="500" 
d="M377 650h51q0 -53 -27 -87t-68 -34q-22 0 -44 6t-44 13q-11 4 -22 7l-22 6q-10 3 -21 4.5t-22 1.5q-17 0 -24 -10t-8 -35l-54 1q1 55 25.5 87t67.5 32q23 0 44.5 -5.5l43.5 -11.5q22 -7 44 -12.5t44 -5.5q17 0 26 10.5t10 31.5v1z" />
    <glyph glyph-name="house" unicode="&#x2c9;" horiz-adv-x="500" 
d="M66 553v68h367v-68h-367v0z" />
    <glyph glyph-name="endash" unicode="&#x2d8;" horiz-adv-x="500" 
d="M323 629h75q-2 -50 -41.5 -78.5t-107.5 -28.5t-106 27.5t-41 78.5l75 1q6 -18 24.5 -27t48.5 -9q32 0 49 8t24 27v1z" />
    <glyph glyph-name="sfthyphen" unicode="&#x2d9;" horiz-adv-x="500" 
d="M250 659q24 -1 40.5 -18t16.5 -41q0 -23 -17 -40t-40 -17t-40 17t-17 40q0 24 17 41t40 17v1z" />
    <glyph glyph-name="filledbox" unicode="&#x2da;" horiz-adv-x="500" 
d="M251 699q41 -1 69.5 -29.5t28.5 -69.5t-28.5 -70t-69.5 -29t-70 29t-29 70t29 69.5t70 28.5v1zM251 655q-22 -1 -38 -16.5t-16 -38.5t16 -39t38 -16q23 0 39 16t16 39t-16 38.5t-39 15.5v1z" />
    <glyph glyph-name="bullet" unicode="&#xb8;" horiz-adv-x="500" 
d="M280 1l-40 -58q9 2 15 3t11 2h4.5h4.5q35 0 57 -18.5t22 -46.5q0 -35 -30.5 -57.5t-77.5 -22.5q-10 0 -19.5 0.5t-19.5 2.5q-14 2 -28.5 6.5t-31.5 11.5l15 33q19 -8 34.5 -12t30.5 -5h5h4q25 0 39 10.5t14 28.5q0 16 -13 26.5t-33 10.5h-2h-2q-7 -1 -15 -3t-20 -6
l-17 16l54 78h39v0z" />
    <glyph glyph-name="uni02BA" unicode="&#x2ba;" horiz-adv-x="500" 
d="M169 517h-46l49 147h88q14 -1 21 -5.5t7 -13.5q0 -4 -2.5 -8t-9.5 -11l-107 -109v0zM339 517h-46l49 147h88q14 -1 21 -5.5t7 -13.5q0 -4 -2.5 -8t-9.5 -11l-107 -109v0z" />
    <glyph glyph-name="glyph223" unicode="&#x2db;" horiz-adv-x="500" 
d="M468 0h32q-10 -8 -17 -15t-11 -13q-3 -5 -4 -10t-1 -10q0 -18 13.5 -28t37.5 -10h0.5h0.5h6t10 1v-66q-6 -1 -10 -1.5t-8 -0.5h-6h-7q-46 0 -71.5 18.5t-25.5 53.5q0 29 15 48.5t46 32.5v0z" />
    <glyph glyph-name="glyph224" unicode="&#x2c7;" horiz-adv-x="500" 
d="M257 583l81 85h65l-109 -145h-96l-101 145h89l71 -85v0z" />
    <glyph glyph-name="glyph225" unicode="&#x141;" horiz-adv-x="643" 
d="M143 254l-110 -80v61l110 80v236q0 36 -12.5 47t-53.5 11l-44 1v57h331v-57h-47q-40 -1 -53 -12t-13 -48v-170l147 106v-60l-147 -107v-258h186q95 -1 120.5 62t30.5 138q0 5 0.5 10.5t0.5 10.5l57 1v-283h-613v57h44q41 -1 53.5 10t12.5 48v139v0z" />
    <glyph glyph-name="glyph226" unicode="&#x142;" horiz-adv-x="340" 
d="M221 427l92 69v-54l-92 -69v-257q0 -42 9.5 -53t46.5 -11l36 1v-53h-283v53h36q38 -1 47.5 10t9.5 52v202l-93 -69v53l93 69v181q0 40 -9.5 50.5t-47.5 10.5l-36 1v54h191v-240v0z" />
    <glyph glyph-name="glyph227" unicode="&#x160;" horiz-adv-x="663" 
d="M507 614l23 58h54v-248h-55q-17 92 -69 140t-150 48q-67 0 -112.5 -33.5t-45.5 -82.5q0 -39 28.5 -60t92.5 -30q9 -1 18.5 -2.5t19.5 -2.5q19 -3 39.5 -5.5t40.5 -6.5q84 -14 154.5 -51.5t70.5 -137.5q0 -95 -68.5 -156t-175.5 -61q-64 0 -114 14t-97 51l-12.5 10.5
l-13.5 11.5l-25 -70h-54v266h61q6 -63 26.5 -101.5t62.5 -67.5q32 -22 70.5 -33.5t78.5 -11.5q68 0 111.5 33t43.5 85q0 64 -58.5 83t-135.5 30q-8 1 -17 2t-17 3q-86 12 -157.5 44t-71.5 134q0 98 66.5 157t175.5 59q50 0 91 -9.5t80 -32.5l20.5 -12.5t20.5 -14.5v1z
M319 783l81 85h65l-109 -145h-96l-101 145h89l71 -85v0z" />
    <glyph glyph-name="glyph228" unicode="&#x161;" horiz-adv-x="506" 
d="M376 425l15 49h51v-172h-51q-18 57 -58.5 87t-102.5 30q-43 0 -70.5 -18t-27.5 -46q0 -29 33.5 -42t80.5 -22q13 -3 26.5 -5.5t26.5 -5.5q63 -15 115 -44t52 -98q0 -74 -49.5 -114.5t-140.5 -40.5q-50 0 -92 16t-76 48l-15 -55h-49v187h55q2 -10 4.5 -17.5l4.5 -13.5
q4 -13 9 -22.5t11 -17.5q3 -3 5.5 -6t5.5 -6q17 -18 44 -31t56 -18q7 -1 14 -1.5t14 -0.5q47 0 75.5 19t28.5 50q0 37 -38 52t-89 26q-9 2 -19 4t-19 4q-63 13 -114.5 41t-51.5 100q0 75 53 106.5t116 34.5h7.5h6.5q48 0 86.5 -14.5t66.5 -43.5v1zM240 583l81 85h65
l-109 -145h-96l-101 145h89l71 -85v0z" />
    <glyph glyph-name="Zcaron" unicode="&#x17d;" 
 />
    <glyph glyph-name="zcaron" unicode="&#x17e;" 
 />
    <glyph glyph-name="brokenbar" unicode="&#xa6;" 
 />
    <glyph glyph-name="glyph232" unicode="&#xd0;" horiz-adv-x="788" 
d="M33 610v57h398q138 -1 222.5 -89.5t84.5 -233.5q0 -160 -84.5 -252t-230.5 -92h-390v57h38q41 -1 53.5 10t12.5 48v201h-104v61h104v174q0 36 -12.5 47t-53.5 11l-38 1v0zM245 61h158q106 -1 160 71t54 212q0 128 -57.5 194.5t-167.5 66.5l-147 1v-229h147v-61h-147v-255
v0z" />
    <glyph glyph-name="glyph233" unicode="&#xf0;" horiz-adv-x="598" 
d="M354 478l-42 86l-87 -32l-14 38l82 33l-31 63h57l32 -46l80 30l15 -38l-70 -28l65 -97l12.5 -20l12.5 -19q32 -49 58.5 -100.5t26.5 -111.5q0 -116 -68 -184.5t-183 -68.5q-109 0 -181.5 65.5t-72.5 177.5q0 118 68.5 187t184.5 69h12.5t10.5 -1q7 0 14.5 -1t17.5 -3v1z
M297 424q-65 -1 -103 -53t-38 -142q0 -93 37 -140.5t109 -47.5q65 0 102 48.5t37 134.5q0 97 -37 148t-107 51v1z" />
    <glyph glyph-name="Yacute" unicode="&#xdd;" 
 />
    <glyph glyph-name="yacute" unicode="&#xfd;" 
 />
    <glyph glyph-name="glyph236" unicode="&#xde;" horiz-adv-x="669" 
d="M251 525h193q96 -1 160.5 -38t64.5 -147q0 -94 -52 -136.5t-167 -42.5l-199 1v-46q0 -38 12.5 -49t52.5 -11l51 1v-57h-334v57h44q41 -1 53.5 10t12.5 48v436q0 36 -12.5 47t-53.5 11l-44 1v57h328v-57h-44q-42 -1 -54.5 -13.5t-12.5 -53.5v-5.5t1 -4.5v-4.5v-4.5v1z
M251 223h163q71 -1 104.5 29t33.5 92q0 59 -34.5 89t-104.5 30l-162 1v-241v0z" />
    <glyph glyph-name="glyph237" unicode="&#xfe;" horiz-adv-x="628" 
d="M217 72v-159q0 -41 9.5 -52t46.5 -11h46v-53h-293v53h36q38 0 47.5 11t9.5 52v638q0 40 -9.5 51t-47.5 11l-36 1v53h191v-280q18 22 33 38.5t29 27.5q22 17 46 23.5t56 6.5q89 0 144.5 -66t55.5 -171q0 -115 -58.5 -188.5t-147.5 -73.5q-49 0 -83 16.5t-66 57.5l-4.5 6.5
l-4.5 6.5v1zM345 412q-58 -1 -95.5 -51.5t-37.5 -130.5q0 -77 36 -126.5t93 -49.5q65 0 99.5 48.5t34.5 139.5q0 82 -33.5 125.5t-96.5 43.5v1z" />
    <glyph glyph-name="minus" unicode="&#x2212;" 
 />
    <glyph glyph-name="multiply" unicode="&#xd7;" 
 />
    <glyph glyph-name="uni00B9" unicode="&#xb9;" 
 />
    <glyph glyph-name="uni00B2" unicode="&#xb2;" 
 />
    <glyph glyph-name="uni00B3" unicode="&#xb3;" 
 />
    <glyph glyph-name="glyph243" unicode="&#xbd;" horiz-adv-x="834" 
d="M759 137h40v-20t-1 -20q-2 -38 -17.5 -69.5t-64.5 -31.5q-20 0 -39 6t-37 14l-4 2t-4 1q-16 7 -32.5 12.5t-33.5 5.5q-13 0 -18 -5.5t-5 -20.5v-11h-47v15.5t1 16.5q1 24 6.5 46t20.5 41q15 17 36.5 30t44.5 25q4 2 7.5 4t7.5 4q35 19 62.5 40t27.5 53q0 30 -23 49
t-60 19h-6t-6 -1q-17 -1 -32 -6t-20 -11l-20 -22l3 -2q1 -1 2 -0.5t2 1.5h1t3 1h2.5h3.5q17 0 29.5 -10t12.5 -28q0 -19 -14 -31t-36 -12q-23 0 -39 18t-16 43q0 45 40.5 76.5t97.5 31.5q68 0 110.5 -32t42.5 -84q0 -57 -37.5 -83t-81.5 -43l-11.5 -4l-11.5 -4
q-34 -12 -61 -27t-34 -42q7 4 11.5 6t8.5 3t7.5 1.5t8.5 0.5q17 0 33 -3.5t32 -7.5q16 -5 32.5 -8.5t32.5 -3.5q23 0 31.5 16.5t9.5 35.5q1 6 1 12v12v1zM588 667h59l-405 -667h-55l401 667v0zM231 657v-318q0 -22 6.5 -28.5t25.5 -6.5l49 1v-38h-235v38h51q18 -1 25 6.5
t7 26.5v204h-83v39q2 0 5 0.5t6 1.5q8 2 17 3.5t19 4.5q20 6 37.5 20.5t17.5 44.5l52 1v0z" />
    <glyph glyph-name="onequarter" unicode="&#xbc;" 
 />
    <glyph glyph-name="threequarters" unicode="&#xbe;" 
 />
    <glyph glyph-name="franc" unicode="&#x20a3;" 
 />
    <glyph glyph-name="Gbreve" unicode="&#x11e;" 
 />
    <glyph glyph-name="gbreve" unicode="&#x11f;" 
 />
    <glyph glyph-name="Idotaccent" unicode="&#x130;" 
 />
    <glyph glyph-name="Scedilla" unicode="&#x15e;" 
 />
    <glyph glyph-name="scedilla" unicode="&#x15f;" 
 />
    <glyph glyph-name="Cacute" unicode="&#x106;" 
 />
    <glyph glyph-name="cacute" unicode="&#x107;" 
 />
    <glyph glyph-name="Ccaron" unicode="&#x10c;" 
 />
    <glyph glyph-name="ccaron" unicode="&#x10d;" 
 />
    <glyph glyph-name="dcroat" unicode="&#x111;" 
 />
    <glyph glyph-name="glyph257" unicode="&#x2192;" horiz-adv-x="500" 
 />
    <glyph glyph-name="glyph258" unicode="&#x2302;" 
 />
    <glyph glyph-name="glyph259" unicode="&#x2013;" horiz-adv-x="567" 
d="M71 319h426v-90h-426v90v0z" />
    <glyph glyph-name="uni00AD" unicode="&#xad;" horiz-adv-x="500" 
 />
    <glyph glyph-name="glyph261" unicode="&#x25a0;" horiz-adv-x="500" 
 />
    <glyph glyph-name="glyph262" unicode="&#x2022;" horiz-adv-x="600" 
d="M198 286q0 39 28 67t68 28q41 0 69.5 -28t28.5 -68t-28.5 -68t-69.5 -28q-40 0 -68 28t-28 68v1z" />
    <glyph glyph-name="glyph263" unicode="&#xaf;" 
 />
    <glyph glyph-name="glyph264" unicode="&#xb0;" 
 />
    <glyph glyph-name="glyph265" unicode="&#xb7;" 
 />
    <glyph glyph-name="underscoredbl" unicode="&#x2017;" 
 />
    <glyph glyph-name="exclamdbl" unicode="&#x203c;" 
 />
    <glyph glyph-name="uni207F" unicode="&#x207f;" 
 />
    <glyph glyph-name="peseta" unicode="&#x20a7;" 
 />
    <glyph glyph-name="Gamma" unicode="&#x393;" 
 />
    <glyph glyph-name="Theta" unicode="&#x398;" 
 />
    <glyph glyph-name="Phi" unicode="&#x3a6;" 
 />
    <glyph glyph-name="alpha" unicode="&#x3b1;" 
 />
    <glyph glyph-name="delta" unicode="&#x3b4;" 
 />
    <glyph glyph-name="epsilon" unicode="&#x3b5;" 
 />
    <glyph glyph-name="sigma" unicode="&#x3c3;" 
 />
    <glyph glyph-name="tau" unicode="&#x3c4;" 
 />
    <glyph glyph-name="phi" unicode="&#x3c6;" 
 />
    <glyph glyph-name="arrowleft" unicode="&#x2190;" 
 />
    <glyph glyph-name="arrowup" unicode="&#x2191;" 
 />
    <glyph glyph-name="arrowdown" unicode="&#x2193;" 
 />
    <glyph glyph-name="arrowboth" unicode="&#x2194;" 
 />
    <glyph glyph-name="arrowupdn" unicode="&#x2195;" 
 />
    <glyph glyph-name="arrowupdnbse" unicode="&#x21a8;" 
 />
    <glyph glyph-name="orthogonal" unicode="&#x221f;" 
 />
    <glyph glyph-name="intersection" unicode="&#x2229;" 
 />
    <glyph glyph-name="equivalence" unicode="&#x2261;" 
 />
    <glyph glyph-name="revlogicalnot" unicode="&#x2310;" 
 />
    <glyph glyph-name="integraltp" unicode="&#x2320;" 
 />
    <glyph glyph-name="integralbt" unicode="&#x2321;" 
 />
    <glyph glyph-name="filledrect" unicode="&#x25ac;" 
 />
    <glyph glyph-name="circle" unicode="&#x25cb;" 
 />
    <glyph glyph-name="triagup" unicode="&#x25b2;" 
 />
    <glyph glyph-name="triagrt" unicode="&#x25ba;" 
 />
    <glyph glyph-name="triagdn" unicode="&#x25bc;" 
 />
    <glyph glyph-name="triaglf" unicode="&#x25c4;" 
 />
    <glyph glyph-name="invbullet" unicode="&#x25d8;" 
 />
    <glyph glyph-name="invcircle" unicode="&#x25d9;" 
 />
    <glyph glyph-name="Rcaron" unicode="&#x158;" 
 />
    <glyph glyph-name="upblock" unicode="&#x2580;" 
 />
    <glyph glyph-name="dnblock" unicode="&#x2584;" 
 />
    <glyph glyph-name="block" unicode="&#x2588;" 
 />
    <glyph glyph-name="lfblock" unicode="&#x258c;" 
 />
    <glyph glyph-name="rtblock" unicode="&#x2590;" 
 />
    <glyph glyph-name="ltshade" unicode="&#x2591;" 
 />
    <glyph glyph-name="shade" unicode="&#x2592;" 
 />
    <glyph glyph-name="dkshade" unicode="&#x2593;" 
 />
    <glyph glyph-name="smileface" unicode="&#x263a;" 
 />
    <glyph glyph-name="invsmileface" unicode="&#x263b;" 
 />
    <glyph glyph-name="sun" unicode="&#x263c;" 
 />
    <glyph glyph-name="female" unicode="&#x2640;" 
 />
    <glyph glyph-name="male" unicode="&#x2642;" 
 />
    <glyph glyph-name="spade" unicode="&#x2660;" 
 />
    <glyph glyph-name="club" unicode="&#x2663;" 
 />
    <glyph glyph-name="heart" unicode="&#x2665;" 
 />
    <glyph glyph-name="diamond" unicode="&#x2666;" 
 />
    <glyph glyph-name="musicalnote" unicode="&#x266a;" 
 />
    <glyph glyph-name="musicalnotedbl" unicode="&#x266b;" 
 />
    <glyph glyph-name="Abreve" unicode="&#x102;" 
 />
    <glyph glyph-name="abreve" unicode="&#x103;" 
 />
    <glyph glyph-name="Aogonek" unicode="&#x104;" 
 />
    <glyph glyph-name="aogonek" unicode="&#x105;" 
 />
    <glyph glyph-name="Dcaron" unicode="&#x10e;" 
 />
    <glyph glyph-name="dcaron" unicode="&#x10f;" 
 />
    <glyph glyph-name="Dcroat" unicode="&#x110;" 
 />
    <glyph glyph-name="Eogonek" unicode="&#x118;" 
 />
    <glyph glyph-name="eogonek" unicode="&#x119;" 
 />
    <glyph glyph-name="Ecaron" unicode="&#x11a;" 
 />
    <glyph glyph-name="ecaron" unicode="&#x11b;" 
 />
    <glyph glyph-name="Lacute" unicode="&#x139;" 
 />
    <glyph glyph-name="lacute" unicode="&#x13a;" 
 />
    <glyph glyph-name="Lcaron" unicode="&#x13d;" 
 />
    <glyph glyph-name="lcaron" unicode="&#x13e;" 
 />
    <glyph glyph-name="Nacute" unicode="&#x143;" 
 />
    <glyph glyph-name="nacute" unicode="&#x144;" 
 />
    <glyph glyph-name="Ncaron" unicode="&#x147;" 
 />
    <glyph glyph-name="ncaron" unicode="&#x148;" 
 />
    <glyph glyph-name="Ohungarumlaut" unicode="&#x150;" 
 />
    <glyph glyph-name="ohungarumlaut" unicode="&#x151;" 
 />
    <glyph glyph-name="Racute" unicode="&#x154;" 
 />
    <glyph glyph-name="racute" unicode="&#x155;" 
 />
    <glyph glyph-name="rcaron" unicode="&#x159;" 
 />
    <glyph glyph-name="Sacute" unicode="&#x15a;" 
 />
    <glyph glyph-name="sacute" unicode="&#x15b;" 
 />
    <glyph glyph-name="Tcommaaccent" unicode="&#x162;" 
 />
    <glyph glyph-name="tcommaaccent" unicode="&#x163;" 
 />
    <glyph glyph-name="Tcaron" unicode="&#x164;" 
 />
    <glyph glyph-name="tcaron" unicode="&#x165;" 
 />
    <glyph glyph-name="Uring" unicode="&#x16e;" 
 />
    <glyph glyph-name="uring" unicode="&#x16f;" 
 />
    <glyph glyph-name="uhungarumlaut" unicode="&#x171;" 
 />
    <glyph glyph-name="Uhungarumlaut" unicode="&#x170;" 
 />
    <glyph glyph-name="Zacute" unicode="&#x179;" 
 />
    <glyph glyph-name="zacute" unicode="&#x17a;" 
 />
    <glyph glyph-name="Zdotaccent" unicode="&#x17b;" 
 />
    <glyph glyph-name="zdotaccent" unicode="&#x17c;" 
 />
    <glyph glyph-name="Ldot" unicode="&#x13f;" 
 />
    <glyph glyph-name="ldot" unicode="&#x140;" 
 />
    <glyph glyph-name="SF100000" unicode="&#x2500;" 
 />
    <glyph glyph-name="SF110000" unicode="&#x2502;" 
 />
    <glyph glyph-name="SF010000" unicode="&#x250c;" 
 />
    <glyph glyph-name="SF030000" unicode="&#x2510;" 
 />
    <glyph glyph-name="SF020000" unicode="&#x2514;" 
 />
    <glyph glyph-name="SF040000" unicode="&#x2518;" 
 />
    <glyph glyph-name="SF080000" unicode="&#x251c;" 
 />
    <glyph glyph-name="SF090000" unicode="&#x2524;" 
 />
    <glyph glyph-name="SF060000" unicode="&#x252c;" 
 />
    <glyph glyph-name="SF070000" unicode="&#x2534;" 
 />
    <glyph glyph-name="SF050000" unicode="&#x253c;" 
 />
    <glyph glyph-name="SF430000" unicode="&#x2550;" 
 />
    <glyph glyph-name="SF240000" unicode="&#x2551;" 
 />
    <glyph glyph-name="SF510000" unicode="&#x2552;" 
 />
    <glyph glyph-name="SF520000" unicode="&#x2553;" 
 />
    <glyph glyph-name="SF390000" unicode="&#x2554;" 
 />
    <glyph glyph-name="SF220000" unicode="&#x2555;" 
 />
    <glyph glyph-name="SF210000" unicode="&#x2556;" 
 />
    <glyph glyph-name="SF250000" unicode="&#x2557;" 
 />
    <glyph glyph-name="SF500000" unicode="&#x2558;" 
 />
    <glyph glyph-name="SF490000" unicode="&#x2559;" 
 />
    <glyph glyph-name="SF380000" unicode="&#x255a;" 
 />
    <glyph glyph-name="SF280000" unicode="&#x255b;" 
 />
    <glyph glyph-name="SF270000" unicode="&#x255c;" 
 />
    <glyph glyph-name="SF260000" unicode="&#x255d;" 
 />
    <glyph glyph-name="SF360000" unicode="&#x255e;" 
 />
    <glyph glyph-name="SF370000" unicode="&#x255f;" 
 />
    <glyph glyph-name="SF420000" unicode="&#x2560;" 
 />
    <glyph glyph-name="SF190000" unicode="&#x2561;" 
 />
    <glyph glyph-name="SF200000" unicode="&#x2562;" 
 />
    <glyph glyph-name="SF230000" unicode="&#x2563;" 
 />
    <glyph glyph-name="SF470000" unicode="&#x2564;" 
 />
    <glyph glyph-name="SF480000" unicode="&#x2565;" 
 />
    <glyph glyph-name="SF410000" unicode="&#x2566;" 
 />
    <glyph glyph-name="SF450000" unicode="&#x2567;" 
 />
    <glyph glyph-name="SF460000" unicode="&#x2568;" 
 />
    <glyph glyph-name="SF400000" unicode="&#x2569;" 
 />
    <glyph glyph-name="SF540000" unicode="&#x256a;" 
 />
    <glyph glyph-name="SF530000" unicode="&#x256b;" 
 />
    <glyph glyph-name="SF440000" unicode="&#x256c;" 
 />
    </font>
</defs>
</svg>
